<?xml version="1.0" encoding="utf-8"?>
<!-- Generator: Adobe Illustrator 26.0.1, SVG Export Plug-In . SVG Version: 6.00 Build 0)  -->
<svg version="1.1" id="Layer_1" xmlns="http://www.w3.org/2000/svg" xmlns:xlink="http://www.w3.org/1999/xlink" x="0px" y="0px"
	 viewBox="0 0 612 792" style="enable-background:new 0 0 612 792;" xml:space="preserve">
<style type="text/css">
	.st0{fill:#F37060;}
	.st1{fill:#3A4454;}
	.st2{fill:#DCF1F3;}
	.st3{fill:#ABDEE5;}
	.st4{fill:#A9D4DB;}
	.st5{fill:#C7DFE5;}
	.st6{fill:#B3E1E8;}
	.st7{fill:#D5EEF3;}
	.st8{fill:#E3EBEF;}
</style>
<g>
	<g>
		<path class="st0" d="M197.1,190.2v9.2h-17.6v6.8h15.8v9.2h-15.8v6.4H198v9.2h-30.2v-40.9H197.1z"/>
		<path class="st0" d="M200.5,215.1c0-10.7,8.3-16.6,17.8-16.6c9.5,0,17.8,5.9,17.8,16.6s-8.3,16.6-17.8,16.6
			C208.8,231.7,200.5,225.7,200.5,215.1z M225.1,215.1c0-4.6-3.1-7.4-6.9-7.4c-3.8,0-6.9,2.8-6.9,7.4s3.1,7.4,6.9,7.4
			C222,222.4,225.1,219.6,225.1,215.1z"/>
		<path class="st0" d="M261.9,215.1c0-4.7-1.5-7.4-5.2-7.4c-3.9,0-5.9,2.8-5.9,7.4v16.1h-11V199h10.5l0.5,3.8
			c1.5-2.7,4.9-4.4,9.7-4.4c9.2,0,12.4,6.3,12.4,16.6v16.1h-10.9V215.1z"/>
		<path class="st1" d="M278.1,190.2h11.7l0,31.7H305v9.2h-26.9V190.2z"/>
		<path class="st1" d="M342.2,218h-23.8c0.9,3.2,3.5,5.1,6.5,5.1c2.8,0,4.8-1.4,6.1-3.9l9.3,4.5c-3.1,5.1-9.1,7.9-15.4,7.9
			c-9.5,0-17.8-6-17.8-16.6s8.3-16.6,17.8-16.6C335.5,198.4,343.2,205.4,342.2,218z M318.4,212.1h13c-0.8-3.2-3.2-5.1-6.5-5.1
			S319.2,208.9,318.4,212.1z"/>
		<path class="st1" d="M370.4,202.8l0.5-3.8h10.5v32.1h-10.5l-0.5-3.8c-1.5,2.9-5.2,4.4-9.9,4.4c-8.3,0-14.7-6.7-14.7-16.6
			s6.5-16.6,14.7-16.6C365.2,198.4,368.9,200.1,370.4,202.8z M370.4,215.1c0-4.6-3.1-7.4-6.9-7.4c-3.8,0-6.8,2.8-6.8,7.4
			s3.1,7.4,6.8,7.4C367.3,222.4,370.4,219.6,370.4,215.1z"/>
		<path class="st1" d="M397,199l0.5,3.6c1.9-2.9,5.1-4.1,9.9-4.1v9.2c-6.9,0-9.9,2.8-9.9,7.4v16.1h-11V199H397z"/>
		<path class="st1" d="M433.7,215.1c0-4.7-1.5-7.4-5.2-7.4c-3.9,0-5.9,2.8-5.9,7.4v16.1h-11V199h10.5l0.5,3.8
			c1.5-2.7,4.9-4.4,9.7-4.4c9.2,0,12.4,6.3,12.4,16.6v16.1h-10.9V215.1z"/>
		<path class="st1" d="M448.4,189.4c0-3.4,2.8-6.3,6.3-6.3c3.4,0,6.3,2.9,6.3,6.3c0,3.5-2.8,6.3-6.3,6.3
			C451.3,195.7,448.4,192.9,448.4,189.4z M460.2,199v32.1h-11V199H460.2z"/>
		<path class="st1" d="M487.4,215.1c0-4.7-1.5-7.4-5.2-7.4c-3.9,0-5.9,2.8-5.9,7.4v16.1h-11V199h10.5l0.5,3.8
			c1.5-2.7,4.9-4.4,9.7-4.4c9.2,0,12.4,6.3,12.4,16.6v16.1h-10.9V215.1z"/>
		<path class="st1" d="M537.6,199v29.9c0,9.6-7.5,14.5-17.2,14.5c-6.5,0-12.1-2.2-16.1-6.8l5.1-5.8c2.6,2.9,6.2,3.9,10.1,3.9
			c3.8,0,7.1-2.4,7.1-6.4V226c-1.5,2.9-5.2,3.9-9.9,3.9c-8.3,0-14.7-6.2-14.7-15.5c0-9.3,6.5-16,14.7-16c4.7,0,8.4,1.6,9.9,4.4
			l0.5-3.8H537.6z M526.7,214.4c0-3.9-3.1-6.7-6.9-6.7c-3.8,0-6.8,2.8-6.8,6.7c0,3.9,3.1,6.7,6.8,6.7
			C523.6,221.1,526.7,218.3,526.7,214.4z"/>
		<path class="st0" d="M541.3,225.7c0-3.2,2.7-5.9,6-5.9c3.2,0,5.9,2.7,5.9,5.9c0,3.3-2.7,6-5.9,6C544,231.7,541.3,229,541.3,225.7z
			"/>
	</g>
	<g>
		<g>
			<path class="st2" d="M117.9,180.4C117.9,180.4,117.9,180.3,117.9,180.4c0.7,0,1.3,0,2,0c0,0,0,0,0,0
				C119.2,180.4,118.6,180.4,117.9,180.4z"/>
		</g>
		<g>
			<g>
				<path class="st0" d="M117.9,180.4c0.7,0,1.3,0,2,0c0,0,0.1,0,0.1,0c0.2,0.1,0.5,0,0.7,0c0.1,0,0.2,0,0.3,0c0.1,0.1,0.3,0,0.4,0
					c0.4,0,0.8,0.1,1.3,0.1c0.1,0.1,0.1,0,0.2,0c0.8,0.1,1.6,0.2,2.4,0.4c1.6,0.3,3.1,0.8,4.6,1.3c2.3,0.9,4.5,2,6.4,3.4
					c1.3,1,2.5,2.1,3.4,3.4c0.9,1.3,1.6,2.8,1.9,4.4c0.2,0.9,0.2,1.7,0.1,2.6c-0.2,1.8-0.6,3.5-1.4,5.2c-0.8,1.8-2,3.4-3.3,4.9
					c-0.7,0.8-1.5,1.6-2.3,2.3c-1.3,1.2-2.7,2.2-4.2,3.2c-1.5,1-3,1.9-4.5,2.7c-1.7,0.9-3.3,1.7-5.1,2.5c-1.3,0.6-2.6,1.1-3.9,1.7
					c-1.6,0.7-3.2,1.3-4.8,1.9c-1.1,0.5-2.3,0.9-3.3,1.5c-0.7,0.4-1.4,0.9-1.9,1.6c-0.5,0.7-0.9,1.4-1,2.3c-0.2,1.4,0.1,2.7,0.7,4
					c0.6,1.3,1.6,2.5,2.7,3.4c1.4,1.2,3,2,4.8,2.5c0.6,0.2,1.2,0.3,1.9,0.5c0.4,0.1,0.8,0.1,1.2,0.2c0.1,0.1,0.2,0,0.3,0
					c0.2,0,0.5,0,0.7,0.1c0.1,0.1,0.3,0,0.4,0c0.1,0,0.2,0,0.3,0c0,0,0.1,0,0.1,0c0.4,0,0.9,0,1.3,0c0.1,0,0.1,0,0.1,0
					c0.1,0,0.2,0,0.3,0c0.2,0,0.3,0,0.5,0c0.1,0,0.1,0,0.2,0c0.1,0,0.2,0,0.3,0c0.1,0,0.1,0,0.2,0c0.1,0,0.2,0,0.3,0
					c0.8-0.1,1.7-0.3,2.5-0.5c1.6-0.4,3.1-1,4.5-1.7c1.7-0.8,3.2-1.7,4.7-2.8c1.6-1.1,3.1-2.4,4.5-3.8c1.1-1.1,2.1-2.2,3.1-3.4
					c0.1-0.2,0.3-0.3,0.4-0.5c0.1-0.2,0.1-0.2-0.1-0.3c-0.5-0.3-1.1-0.6-1.6-0.9c-0.5-0.3-1.1-0.6-1.6-0.9c-0.1,0-0.2-0.1-0.2-0.2
					c2.5-0.9,5-1.8,7.6-2.7c0.1,0.2,0,0.4,0.1,0.7c0.1,0.5,0.1,1,0.1,1.5c0,0.5,0.1,1,0.1,1.6c0,0.3,0,0.5,0.1,0.8
					c0.1,0.7,0.1,1.5,0.2,2.2c0,0.3,0.1,0.5,0,0.8c-0.3-0.1-0.6-0.3-0.8-0.4c-0.8-0.4-1.6-0.9-2.4-1.3c-0.2-0.1-0.2-0.1-0.3,0.1
					c-0.7,1.6-1.6,3-2.7,4.4c-0.8,1.1-1.8,2.2-2.7,3.2c-1.8,1.9-3.8,3.5-6.1,4.9c-2,1.2-4,2.1-6.2,2.9c-1.6,0.5-3.2,1-4.9,1.3
					c-0.7,0.1-1.4,0.2-2,0.3c-0.1,0-0.2,0-0.3,0c-0.1,0-0.1,0-0.2,0c-0.1,0-0.2,0-0.3,0c-0.1,0-0.1,0-0.2,0c-0.1,0-0.2,0-0.3,0
					c-0.1,0-0.1,0-0.2,0c-0.1,0-0.3,0-0.4,0c-0.9,0-1.9,0-2.8,0c-0.1,0-0.3,0-0.4,0c-0.1-0.1-0.3,0-0.4,0c-0.1,0-0.2,0-0.3,0
					c-0.1-0.1-0.2,0-0.3,0c-0.6,0-1.2-0.1-1.8-0.2c-1.5-0.2-3-0.6-4.4-1.1c-1.8-0.6-3.6-1.4-5.2-2.4c-1.3-0.8-2.6-1.6-3.8-2.5
					c-1.3-1-2.4-2-3.5-3.1c-1.6-1.6-3-3.4-4.1-5.3c-0.8-1.3-1.5-2.7-2.1-4.1c-0.5-1.3-0.9-2.6-1.3-4c-0.2-0.8-0.4-1.7-0.5-2.5
					c-0.1-1-0.2-2-0.3-3c0-0.7,0-1.4,0-2.1c0-1,0.1-2,0.2-3c0.3-2.3,0.9-4.6,1.7-6.8c0.5-1.4,1.2-2.8,1.9-4.2c1.1-2,2.4-3.8,3.9-5.6
					c1-1.1,2-2.1,3.1-3.1c1.9-1.6,3.9-3,6.1-4.1c2.4-1.3,5-2.2,7.6-2.9c1.3-0.3,2.7-0.6,4.1-0.8c0.8-0.1,1.5-0.2,2.3-0.3
					c0.1,0,0.3,0,0.4,0c0.1,0,0.2,0,0.3,0C117.4,180.4,117.6,180.5,117.9,180.4C117.9,180.4,117.9,180.4,117.9,180.4z M107.5,213.5
					c0.1,0,0.2,0,0.3,0c0.5,0,1-0.1,1.5-0.2c1.2-0.1,2.3-0.4,3.5-0.8c1.9-0.6,3.7-1.4,5.5-2.3c2.5-1.4,4.7-3,6.7-4.9
					c1-1,1.8-2,2.6-3.1c1-1.5,1.7-3.1,1.9-4.8c0.1-0.7,0.1-1.4,0-2.1c-0.1-1-0.5-1.8-1-2.7c-0.6-1-1.3-1.8-2.3-2.5
					c-0.7-0.5-1.5-0.9-2.4-1.3c-1.3-0.5-2.6-0.8-4-0.9c-0.1-0.1-0.2,0-0.3,0c-0.1,0-0.2,0-0.3,0c-0.1-0.1-0.2,0-0.3,0
					c-0.2,0-0.4,0-0.5,0c-0.2,0-0.3,0-0.5,0c-0.1,0-0.3,0-0.4,0c-0.2,0-0.4,0-0.5,0c-0.1,0-0.2,0-0.3,0c-0.1,0-0.3,0-0.4,0
					c-0.4,0-0.7,0.1-1.1,0.1c-0.1,0-0.2,0-0.3,0c-0.8,0.1-1.6,0.2-2.4,0.4c-2.3,0.5-4.5,1.3-6.5,2.4c-2.1,1.2-3.9,2.6-5.4,4.4
					c-1.7,1.9-2.9,4.1-3.6,6.5c-0.4,1.3-0.6,2.6-0.4,3.9c0.1,0.6,0.2,1.3,0.3,1.9c0.4,1.3,1.1,2.4,2.1,3.4c0.8,0.8,1.8,1.3,2.8,1.8
					c0.9,0.3,1.8,0.6,2.7,0.7c0.1,0.1,0.1,0,0.2,0c0.3,0,0.5,0.1,0.8,0.1c0.2,0.1,0.4,0,0.5,0c0.4,0,0.9,0,1.3,0
					C107.3,213.5,107.4,213.5,107.5,213.5z"/>
			</g>
		</g>
		<g>
			<path class="st3" d="M113.8,241.7c0.9,0,1.9,0,2.8,0c-0.1,0.1-0.1,0-0.2,0c-0.8,0-1.6,0-2.4,0
				C113.9,241.7,113.8,241.7,113.8,241.7z"/>
		</g>
		<g>
			<path class="st4" d="M120.7,236.8c0,0-0.1,0-0.1,0c-0.4,0-0.9,0-1.3,0c-0.1,0-0.1,0-0.1,0C119.6,236.8,120.1,236.8,120.7,236.8z"
				/>
		</g>
		<g>
			<path class="st5" d="M117.9,180.4c-0.2,0.1-0.5,0-0.7,0C117.4,180.3,117.6,180.4,117.9,180.4z"/>
		</g>
		<g>
			<path class="st5" d="M120.7,180.4c-0.2,0-0.5,0-0.7,0C120.3,180.4,120.5,180.3,120.7,180.4z"/>
		</g>
		<g>
			<path class="st5" d="M121.5,236.7c-0.2,0.1-0.3,0-0.5,0C121.2,236.7,121.3,236.7,121.5,236.7z"/>
		</g>
		<g>
			<path class="st5" d="M118.7,236.8c-0.1,0-0.3,0-0.4,0C118.5,236.7,118.6,236.7,118.7,236.8z"/>
		</g>
		<g>
			<path class="st3" d="M112.9,241.6c0.1,0,0.3,0,0.4,0C113.2,241.7,113.1,241.7,112.9,241.6z"/>
		</g>
		<g>
			<path class="st5" d="M116.9,180.4c-0.1,0.1-0.3,0-0.4,0C116.6,180.4,116.7,180.4,116.9,180.4z"/>
		</g>
		<g>
			<path class="st5" d="M121.4,180.5c-0.1,0-0.3,0-0.4,0C121.1,180.4,121.3,180.4,121.4,180.5z"/>
		</g>
		<g>
			<path class="st5" d="M122.1,236.7c-0.1,0.1-0.2,0-0.3,0C121.8,236.6,121.9,236.7,122.1,236.7z"/>
		</g>
		<g>
			<path class="st6" d="M112.3,241.6c0.1,0,0.2,0,0.3,0C112.6,241.6,112.4,241.7,112.3,241.6z"/>
		</g>
		<g>
			<path class="st6" d="M117.7,241.6c0.1-0.1,0.2,0,0.3,0C117.9,241.7,117.8,241.6,117.7,241.6z"/>
		</g>
		<g>
			<path class="st6" d="M117.1,241.6c0.1,0,0.2,0,0.3,0C117.4,241.7,117.3,241.7,117.1,241.6C117.1,241.7,117.1,241.7,117.1,241.6z"
				/>
		</g>
		<g>
			<path class="st4" d="M117.6,236.7c-0.1,0-0.2,0-0.3,0C117.4,236.6,117.5,236.6,117.6,236.7z"/>
		</g>
		<g>
			<path class="st5" d="M122.5,236.6c-0.1,0.1-0.2,0-0.3,0C122.3,236.6,122.4,236.6,122.5,236.6z"/>
		</g>
		<g>
			<path class="st6" d="M118.2,241.6c0.1-0.1,0.2,0,0.3,0C118.4,241.6,118.3,241.6,118.2,241.6z"/>
		</g>
		<g>
			<path class="st5" d="M122.9,180.6c-0.1,0-0.2,0-0.2,0C122.7,180.6,122.8,180.6,122.9,180.6z"/>
		</g>
		<g>
			<path class="st3" d="M117.1,241.6C117.1,241.7,117.1,241.7,117.1,241.6c-0.1,0-0.1,0-0.2,0C117,241.6,117.1,241.6,117.1,241.6z"
				/>
		</g>
		<g>
			<path class="st7" d="M117.7,187.9c-0.1,0.1-0.2,0-0.3,0c-0.2,0-0.4,0-0.6,0c0.2-0.1,0.4,0,0.5,0
				C117.4,187.8,117.6,187.8,117.7,187.9z"/>
		</g>
		<g>
			<path class="st7" d="M118.7,187.9c-0.2,0-0.4,0-0.6,0C118.4,187.9,118.6,187.9,118.7,187.9C118.7,187.9,118.7,187.9,118.7,187.9z
				"/>
		</g>
		<g>
			<path class="st8" d="M105.3,213.5c0.2,0,0.4,0,0.5,0C105.7,213.5,105.5,213.5,105.3,213.5z"/>
		</g>
		<g>
			<path class="st6" d="M116.4,187.9c-0.1,0.1-0.3,0-0.4,0C116.2,187.9,116.3,187.9,116.4,187.9z"/>
		</g>
		<g>
			<path class="st6" d="M118.7,187.9C118.7,187.9,118.7,187.9,118.7,187.9c0.1,0,0.2-0.1,0.3,0C119,187.9,118.9,187.9,118.7,187.9z"
				/>
		</g>
		<g>
			<path class="st6" d="M119.7,187.9c-0.1,0-0.2,0-0.3,0C119.5,187.9,119.6,187.9,119.7,187.9z"/>
		</g>
		<g>
			<path class="st4" d="M107.5,213.5c0.1,0,0.2,0,0.3,0C107.7,213.6,107.6,213.5,107.5,213.5C107.5,213.5,107.5,213.5,107.5,213.5z"
				/>
		</g>
		<g>
			<path class="st6" d="M114.9,188.1c-0.1,0.1-0.2,0-0.3,0C114.7,188,114.8,188.1,114.9,188.1z"/>
		</g>
		<g>
			<path class="st8" d="M107.5,213.5C107.5,213.5,107.5,213.5,107.5,213.5c-0.1,0-0.2,0-0.3,0C107.3,213.4,107.4,213.5,107.5,213.5z
				"/>
		</g>
		<g>
			<path class="st5" d="M104.3,213.4c0.1,0,0.2,0,0.2,0C104.5,213.4,104.4,213.4,104.3,213.4z"/>
		</g>
		<g>
			<path class="st1" d="M106.7,210c-3.7,0.1-6.8-3-6.8-6.8c0-3.8,3-6.8,6.8-6.8c3.7,0,6.7,3,6.7,6.8
				C113.5,207.1,110.3,210.1,106.7,210z"/>
		</g>
	</g>
</g>
</svg>
