<svg width="125" height="19" viewBox="0 0 125 19" fill="none" xmlns="http://www.w3.org/2000/svg">
<path d="M8.4838 1.01204C8.4838 1.0086 8.4838 1.00344 8.4838 1C8.65641 1 8.82902 1 9.00163 1C9.00163 1.00344 9.00163 1.0086 9.00163 1.01204C8.82902 1.01204 8.65641 1.01204 8.4838 1.01204Z" fill="#DBF2F4"/>
<path d="M8.48392 1C8.65653 1 8.82914 1 9.00168 1C9.01097 1 9.02026 1.00166 9.02955 1.00166C9.09077 1.0232 9.15389 1.0116 9.217 1.0116C9.24114 1.0116 9.26338 1.01326 9.28751 1.01326C9.31904 1.03314 9.35436 1.0232 9.38961 1.0232C9.50094 1.02485 9.6086 1.04639 9.71809 1.05137C9.73477 1.06628 9.75707 1.06296 9.77748 1.06131C9.98351 1.0845 10.1876 1.1193 10.3918 1.15907C10.8038 1.24026 11.2065 1.34962 11.5981 1.4888C12.1975 1.7042 12.7581 1.97926 13.2592 2.34545C13.6007 2.59399 13.9013 2.87733 14.1444 3.20706C14.3912 3.54177 14.5583 3.90464 14.6344 4.30065C14.6771 4.51937 14.6826 4.73975 14.6622 4.95846C14.6214 5.41081 14.4952 5.84494 14.2929 6.26249C14.0739 6.70987 13.7844 7.11913 13.4373 7.49527C13.2517 7.69739 13.055 7.88959 12.8434 8.07024C12.5019 8.36348 12.1363 8.6336 11.7522 8.8838C11.3735 9.12904 10.982 9.35605 10.5792 9.56478C10.1487 9.78847 9.70697 9.99563 9.25599 10.1845C8.92006 10.3253 8.58412 10.4662 8.24446 10.6004C7.83063 10.7645 7.41674 10.9252 7.00107 11.0875C6.7041 11.2035 6.40715 11.3179 6.13434 11.4736C5.94132 11.583 5.76501 11.7105 5.62953 11.8779C5.49219 12.0502 5.40682 12.2408 5.37527 12.4496C5.32145 12.8025 5.39383 13.1372 5.55529 13.4603C5.72232 13.7934 5.96545 14.0783 6.26611 14.3202C6.63172 14.6152 7.05484 14.824 7.52629 14.9532C7.68589 14.9963 7.84921 15.0344 8.01063 15.0692C8.11273 15.0908 8.2185 15.1007 8.32243 15.1139C8.34473 15.1322 8.3707 15.1239 8.39484 15.1239C8.45606 15.1288 8.51917 15.1338 8.58039 15.1388C8.61755 15.1587 8.65836 15.1488 8.69734 15.1488C8.72521 15.1504 8.7549 15.1504 8.7827 15.1521C8.79382 15.162 8.80683 15.1636 8.82168 15.1636C8.9349 15.1636 9.04812 15.1636 9.16134 15.1636C9.17619 15.1636 9.18914 15.162 9.20026 15.1521C9.22812 15.1504 9.25782 15.1504 9.28568 15.1488C9.33022 15.1488 9.37477 15.1587 9.41558 15.1388C9.43416 15.1388 9.45266 15.1371 9.47124 15.1371C9.50094 15.1371 9.53246 15.1454 9.5585 15.1272C9.57334 15.1272 9.58629 15.1256 9.60114 15.1256C9.62717 15.1272 9.65314 15.1322 9.67355 15.1156C9.89443 15.0908 10.1115 15.0477 10.3268 14.9946C10.7333 14.8936 11.1249 14.7544 11.4998 14.5804C11.9322 14.3799 12.3368 14.1413 12.7228 13.8762C13.1404 13.5879 13.5264 13.2681 13.8864 12.9235C14.1685 12.6533 14.4413 12.375 14.6845 12.0735C14.7198 12.0304 14.7531 11.9856 14.7847 11.9409C14.82 11.8928 14.8181 11.8895 14.7606 11.858C14.6232 11.7818 14.484 11.7056 14.3449 11.6293C14.2019 11.5515 14.059 11.472 13.9161 11.3941C13.8957 11.3825 13.8735 11.3759 13.8549 11.3477C14.5119 11.1174 15.1689 10.8904 15.8314 10.6617C15.8463 10.7197 15.8426 10.7727 15.85 10.8257C15.8667 10.9484 15.8722 11.0727 15.8834 11.1952C15.8964 11.3278 15.9094 11.4587 15.9223 11.5913C15.9298 11.6576 15.9316 11.7238 15.9391 11.7901C15.9576 11.9724 15.9706 12.1563 15.9873 12.3385C15.9929 12.4015 16.004 12.4645 15.9985 12.5341C15.9187 12.5059 15.8518 12.4628 15.7832 12.4264C15.5716 12.317 15.3619 12.2043 15.1522 12.0949C15.1039 12.0701 15.1039 12.0701 15.0817 12.1182C14.896 12.5125 14.6529 12.877 14.3783 13.225C14.1592 13.5034 13.9217 13.7685 13.6674 14.022C13.1979 14.4926 12.6782 14.9101 12.0807 15.2482C11.5666 15.5381 11.0283 15.7817 10.4567 15.9673C10.0373 16.1031 9.61043 16.2092 9.17246 16.2821C8.99612 16.3119 8.81985 16.3384 8.63978 16.3517C8.61382 16.3517 8.58785 16.3434 8.56555 16.3616C8.54704 16.3633 8.52846 16.3633 8.50989 16.3649C8.48019 16.3649 8.44867 16.3567 8.42263 16.3749C8.40412 16.3749 8.38555 16.3766 8.36697 16.3766C8.33728 16.3766 8.30948 16.3766 8.27978 16.3766C8.26304 16.3766 8.24819 16.3749 8.23524 16.3865C8.20182 16.3881 8.16839 16.3881 8.13497 16.3898C7.89002 16.3898 7.64501 16.3898 7.40006 16.3898C7.36663 16.3881 7.33328 16.3881 7.29985 16.3865C7.2627 16.3666 7.22189 16.3782 7.1829 16.3766C7.15877 16.3766 7.13653 16.3749 7.1124 16.3749C7.08453 16.3567 7.05484 16.3649 7.02514 16.3649C6.86745 16.355 6.71152 16.3335 6.55562 16.3103C6.16588 16.2506 5.78357 16.1628 5.41239 16.0435C4.93727 15.8927 4.48629 15.6955 4.06129 15.452C3.71795 15.2564 3.3876 15.0443 3.0721 14.814C2.74545 14.5738 2.44295 14.3136 2.16084 14.0336C1.74698 13.6244 1.39065 13.177 1.08071 12.7014C0.865423 12.3717 0.68726 12.027 0.535075 11.6708C0.397738 11.346 0.288239 11.0147 0.202868 10.6766C0.150902 10.4711 0.108217 10.2624 0.0785219 10.0536C0.0414041 9.80342 0.0191333 9.55322 0.00428603 9.30132C0.000574218 9.12238 -0.00313759 8.94179 0.00428603 8.76285C0.0135655 8.51095 0.0339805 8.26075 0.0692426 8.01061C0.149047 7.42733 0.297519 6.85899 0.510948 6.30557C0.65014 5.9427 0.819029 5.59143 1.01575 5.25175C1.30342 4.75466 1.64491 4.28905 2.04206 3.85493C2.29447 3.57988 2.56729 3.32139 2.85867 3.08113C3.34491 2.67849 3.87755 2.33219 4.4566 2.04057C5.08575 1.72409 5.74645 1.48052 6.44056 1.30654C6.79131 1.21872 7.14582 1.14913 7.50399 1.0961C7.7044 1.06628 7.90487 1.03977 8.10717 1.02651C8.14243 1.02651 8.17768 1.03645 8.20921 1.01657C8.23334 1.01657 8.25565 1.01491 8.27978 1.01491C8.34284 1.01326 8.40595 1.02651 8.46717 1.00331C8.47463 1.00166 8.47836 1.00166 8.48392 1ZM5.76501 9.31628C5.7947 9.31628 5.82626 9.32621 5.85224 9.30629C5.9803 9.29806 6.10835 9.2831 6.23641 9.26821C6.54634 9.23177 6.84697 9.16548 7.14209 9.07934C7.64135 8.9335 8.11646 8.73633 8.56928 8.49606C9.21511 8.15475 9.80344 7.74878 10.3157 7.255C10.5662 7.01309 10.7945 6.7546 10.9857 6.47292C11.2381 6.10011 11.4218 5.70575 11.4756 5.26832C11.4961 5.09599 11.4961 4.92201 11.4682 4.75135C11.4311 4.51275 11.342 4.2874 11.2102 4.07697C11.0562 3.8334 10.8613 3.61799 10.6108 3.44567C10.4196 3.31311 10.2118 3.20872 9.9909 3.12587C9.66053 3.0016 9.31348 2.93035 8.95714 2.90053C8.92934 2.8823 8.89965 2.89059 8.86995 2.89059C8.84209 2.88893 8.81429 2.88893 8.7846 2.88728C8.75673 2.86905 8.72704 2.87733 8.69734 2.87733C8.64907 2.87733 8.6027 2.87733 8.55443 2.87733C8.51172 2.87733 8.46907 2.87733 8.42453 2.87733C8.38928 2.87733 8.35402 2.87402 8.3187 2.87568C8.27233 2.87899 8.22406 2.86739 8.17951 2.88728C8.15172 2.88728 8.12385 2.88893 8.09416 2.88893C8.0589 2.88893 8.02365 2.87899 7.99212 2.89887C7.89741 2.90881 7.80094 2.9171 7.70629 2.92704C7.68216 2.92704 7.65429 2.92041 7.63389 2.93863C7.42602 2.96349 7.22006 2.99995 7.01402 3.04303C6.41272 3.16896 5.84481 3.36779 5.31403 3.64947C4.7721 3.93944 4.3007 4.30065 3.90725 4.74306C3.47482 5.22855 3.14819 5.76374 2.96817 6.36522C2.87166 6.68667 2.82341 7.01309 2.85495 7.3478C2.8698 7.50852 2.89579 7.66591 2.94589 7.82004C3.04797 8.14312 3.22613 8.42813 3.48967 8.66671C3.7031 8.85892 3.95179 9.00475 4.23203 9.10748C4.46031 9.192 4.69786 9.24999 4.94285 9.27984C4.95955 9.29473 4.98182 9.2914 5.00224 9.28976C5.06904 9.2914 5.13401 9.30962 5.20267 9.30465C5.24907 9.32457 5.29732 9.31458 5.34558 9.31458C5.46064 9.31954 5.57571 9.31954 5.69077 9.31458C5.71862 9.31628 5.74088 9.31628 5.76501 9.31628Z" fill="white"/>
<path d="M7.4057 16.9879C7.65065 16.9879 7.89567 16.9879 8.14062 16.9879C8.12577 17.0016 8.10536 16.9999 8.08679 16.9999C7.87892 16.9999 7.66923 16.9999 7.46136 16.9999C7.44095 16.9999 7.42055 17.0016 7.4057 16.9879Z" fill="#A4EBEE"/>
<path d="M9.2021 15.7099C9.19091 15.7202 9.17796 15.7219 9.16311 15.7219C9.04989 15.7219 8.93667 15.7219 8.82345 15.7219C8.8086 15.7219 8.79566 15.7202 8.78447 15.7099C8.92366 15.7099 9.06284 15.7099 9.2021 15.7099Z" fill="#A8D4DB"/>
<path d="M8.46915 1.01377C8.40786 1.03785 8.34481 1.02409 8.28169 1.02581C8.34291 1.00173 8.40603 1.01721 8.46915 1.01377Z" fill="#C7DFE5"/>
<path d="M9.21701 1.02409C9.1539 1.02237 9.09078 1.03613 9.02956 1.01377C9.09267 1.01721 9.15579 1.00173 9.21701 1.02409Z" fill="#C7DFE5"/>
<path d="M9.41946 15.6961C9.37674 15.7168 9.3322 15.7082 9.28956 15.7064C9.33037 15.6858 9.37491 15.6979 9.41946 15.6961Z" fill="#C7DFE5"/>
<path d="M8.69919 15.7064C8.66021 15.7064 8.6194 15.7168 8.58224 15.6961C8.62313 15.6979 8.66394 15.6858 8.69919 15.7064Z" fill="#C7DFE5"/>
<path d="M7.1884 16.9758C7.22738 16.9776 7.2682 16.9655 7.30528 16.9862C7.26637 16.9862 7.22549 16.9965 7.1884 16.9758Z" fill="#A4EBEE"/>
<path d="M8.21105 1.02752C8.17946 1.04816 8.1442 1.03784 8.10895 1.03784C8.14047 1.0172 8.17573 1.02752 8.21105 1.02752Z" fill="#C7DFE5"/>
<path d="M9.38956 1.03784C9.3543 1.03784 9.31905 1.04816 9.28752 1.02752C9.32278 1.02752 9.35803 1.0172 9.38956 1.03784Z" fill="#C7DFE5"/>
<path d="M9.56224 15.6824C9.53627 15.7031 9.50468 15.6944 9.47498 15.6927C9.50102 15.6738 9.53254 15.6841 9.56224 15.6824Z" fill="#C7DFE5"/>
<path d="M7.03072 16.9621C7.06041 16.9621 7.09194 16.9535 7.1179 16.9724C7.08821 16.9742 7.05851 16.981 7.03072 16.9621Z" fill="#ADEEF1"/>
<path d="M8.42447 16.9724C8.45227 16.9535 8.48196 16.9621 8.51166 16.9621C8.48569 16.9828 8.45599 16.9742 8.42447 16.9724Z" fill="#ADEEF1"/>
<path d="M8.28169 16.9759C8.31139 16.9759 8.33918 16.9759 8.36888 16.9759C8.34291 16.9965 8.31139 16.9862 8.28169 16.9862C8.28169 16.9827 8.28169 16.9793 8.28169 16.9759Z" fill="#ADEEF1"/>
<path d="M8.3985 15.6824C8.37437 15.6824 8.3465 15.691 8.3261 15.6721C8.35023 15.6704 8.3762 15.6635 8.3985 15.6824Z" fill="#A8D4DB"/>
<path d="M9.67722 15.6686C9.65491 15.6875 9.62895 15.6807 9.60481 15.679C9.62522 15.6618 9.65308 15.6704 9.67722 15.6686Z" fill="#C7DFE5"/>
<path d="M8.56929 16.9604C8.5916 16.9415 8.61756 16.95 8.64353 16.95C8.62129 16.9672 8.59532 16.9604 8.56929 16.9604Z" fill="#ADEEF1"/>
<path d="M9.77925 1.07744C9.75885 1.07916 9.73661 1.0826 9.71986 1.06712C9.74027 1.06712 9.76068 1.06196 9.77925 1.07744Z" fill="#C7DFE5"/>
<path d="M8.28163 16.9758C8.28163 16.9793 8.28163 16.9827 8.28163 16.9861C8.26679 16.9861 8.25194 16.9861 8.23709 16.9861C8.25004 16.9723 8.26679 16.9741 8.28163 16.9758Z" fill="#A4EBEE"/>
<path d="M8.42637 2.96081C8.40223 2.97972 8.37254 2.97113 8.34467 2.97113C8.29084 2.97285 8.23518 2.97113 8.18135 2.97113C8.22589 2.95048 8.27416 2.96252 8.32054 2.95909C8.35586 2.95737 8.39111 2.95909 8.42637 2.96081Z" fill="#CFFAFB"/>
<path d="M8.69919 2.97121C8.65099 2.96777 8.60088 2.98325 8.55444 2.96089C8.60271 2.96089 8.64909 2.96089 8.69736 2.96089C8.69919 2.96433 8.69919 2.96777 8.69919 2.97121Z" fill="#CFFAFB"/>
<path d="M5.20459 9.63295C5.25284 9.6364 5.3011 9.62264 5.34749 9.64325C5.3011 9.64495 5.25098 9.65532 5.20459 9.63295Z" fill="#E3ECF0"/>
<path d="M8.09607 2.97289C8.06448 2.99353 8.02923 2.98321 7.99397 2.98321C8.02557 2.96256 8.06265 2.97289 8.09607 2.97289Z" fill="#ADEEF1"/>
<path d="M8.69925 2.97121C8.69925 2.96776 8.69925 2.96433 8.69742 2.96089C8.72711 2.96089 8.75864 2.95229 8.78467 2.97121C8.75864 2.96949 8.72894 2.97121 8.69925 2.97121Z" fill="#ADEEF1"/>
<path d="M8.95911 2.98326C8.92942 2.98326 8.89789 2.99186 8.87186 2.97294C8.90155 2.97294 8.93125 2.96433 8.95911 2.98326Z" fill="#ADEEF1"/>
<path d="M5.76683 9.63464C5.79466 9.63464 5.82436 9.63464 5.8522 9.63634C5.82436 9.65702 5.79466 9.64495 5.76497 9.64671C5.76497 9.64156 5.76683 9.6381 5.76683 9.63464Z" fill="#A8D4DB"/>
<path d="M7.70821 3.0125C7.68597 3.03141 7.65994 3.02453 7.6358 3.02453C7.65628 3.00562 7.68224 3.0125 7.70821 3.0125Z" fill="#ADEEF1"/>
<path d="M5.7669 9.63464C5.7669 9.6381 5.76505 9.64149 5.76505 9.64495C5.74092 9.64495 5.71865 9.64325 5.69452 9.64325C5.71679 9.62603 5.74278 9.63464 5.7669 9.63464Z" fill="#E3ECF0"/>
<path d="M4.94664 9.60712C4.96705 9.60535 4.98932 9.6019 5.00603 9.61742C4.98376 9.62088 4.96335 9.62427 4.94664 9.60712Z" fill="#C7DFE5"/>
<path d="M5.55612 8.72854C4.60279 8.74346 3.79235 7.95729 3.79662 6.96597C3.79875 5.97893 4.58786 5.19913 5.56679 5.20341C6.53078 5.20555 7.32203 5.9768 7.32203 6.96384C7.32413 7.97647 6.50306 8.74563 5.55612 8.72854Z" fill="white"/>
<path d="M23.0114 15V3.36364H30.8523V5.39205H25.4716V8.16477H30.4489V10.1932H25.4716V12.9716H30.875V15H23.0114ZM36.706 15.1705C35.8234 15.1705 35.0601 14.983 34.4162 14.608C33.776 14.2292 33.2817 13.7027 32.9332 13.0284C32.5848 12.3504 32.4105 11.5644 32.4105 10.6705C32.4105 9.76894 32.5848 8.98106 32.9332 8.30682C33.2817 7.62879 33.776 7.10227 34.4162 6.72727C35.0601 6.34848 35.8234 6.15909 36.706 6.15909C37.5885 6.15909 38.3499 6.34848 38.9901 6.72727C39.634 7.10227 40.1302 7.62879 40.4787 8.30682C40.8272 8.98106 41.0014 9.76894 41.0014 10.6705C41.0014 11.5644 40.8272 12.3504 40.4787 13.0284C40.1302 13.7027 39.634 14.2292 38.9901 14.608C38.3499 14.983 37.5885 15.1705 36.706 15.1705ZM36.7173 13.2955C37.1188 13.2955 37.4541 13.1818 37.723 12.9545C37.992 12.7235 38.1946 12.4091 38.331 12.0114C38.4711 11.6136 38.5412 11.161 38.5412 10.6534C38.5412 10.1458 38.4711 9.69318 38.331 9.29545C38.1946 8.89773 37.992 8.58333 37.723 8.35227C37.4541 8.12121 37.1188 8.00568 36.7173 8.00568C36.312 8.00568 35.9711 8.12121 35.6946 8.35227C35.4219 8.58333 35.2154 8.89773 35.0753 9.29545C34.9389 9.69318 34.8707 10.1458 34.8707 10.6534C34.8707 11.161 34.9389 11.6136 35.0753 12.0114C35.2154 12.4091 35.4219 12.7235 35.6946 12.9545C35.9711 13.1818 36.312 13.2955 36.7173 13.2955ZM44.9957 9.95455V15H42.5753V6.27273H44.8821V7.8125H44.9844C45.1776 7.30492 45.5014 6.90341 45.956 6.60795C46.4105 6.30871 46.9616 6.15909 47.6094 6.15909C48.2154 6.15909 48.7438 6.29167 49.1946 6.55682C49.6454 6.82197 49.9957 7.20076 50.2457 7.69318C50.4957 8.18182 50.6207 8.76515 50.6207 9.44318V15H48.2003V9.875C48.2041 9.34091 48.0677 8.92424 47.7912 8.625C47.5147 8.32197 47.134 8.17045 46.6491 8.17045C46.3234 8.17045 46.0355 8.24053 45.7855 8.38068C45.5393 8.52083 45.3461 8.72538 45.206 8.99432C45.0696 9.25947 44.9995 9.57955 44.9957 9.95455ZM56.277 15V3.36364H58.7372V12.9716H63.7259V15H56.277ZM69.2869 15.1705C68.3892 15.1705 67.6165 14.9886 66.9688 14.625C66.3248 14.2576 65.8286 13.7386 65.4801 13.0682C65.1316 12.3939 64.9574 11.5966 64.9574 10.6761C64.9574 9.77841 65.1316 8.99053 65.4801 8.3125C65.8286 7.63447 66.3191 7.10606 66.9517 6.72727C67.5881 6.34848 68.3343 6.15909 69.1903 6.15909C69.7661 6.15909 70.3021 6.25189 70.7983 6.4375C71.2983 6.61932 71.7339 6.89394 72.1051 7.26136C72.4801 7.62879 72.7718 8.09091 72.9801 8.64773C73.1884 9.20076 73.2926 9.84848 73.2926 10.5909V11.2557H65.9233V9.75568H71.0142C71.0142 9.4072 70.9384 9.09848 70.7869 8.82955C70.6354 8.56061 70.4252 8.35038 70.1562 8.19886C69.8911 8.04356 69.5824 7.96591 69.2301 7.96591C68.8627 7.96591 68.5369 8.05114 68.2528 8.22159C67.9725 8.38826 67.7528 8.61364 67.5938 8.89773C67.4347 9.17803 67.3532 9.49053 67.3494 9.83523V11.2614C67.3494 11.6932 67.429 12.0663 67.5881 12.3807C67.7509 12.6951 67.9801 12.9375 68.2756 13.108C68.571 13.2784 68.9214 13.3636 69.3267 13.3636C69.5956 13.3636 69.8419 13.3258 70.0653 13.25C70.2888 13.1742 70.4801 13.0606 70.6392 12.9091C70.7983 12.7576 70.9195 12.572 71.0028 12.3523L73.2415 12.5C73.1278 13.0379 72.8949 13.5076 72.5426 13.9091C72.1941 14.3068 71.7434 14.6174 71.1903 14.8409C70.6411 15.0606 70.0066 15.1705 69.2869 15.1705ZM77.3608 15.1648C76.804 15.1648 76.3078 15.0682 75.8722 14.875C75.4366 14.678 75.0919 14.3883 74.8381 14.0057C74.5881 13.6193 74.4631 13.1383 74.4631 12.5625C74.4631 12.0777 74.5521 11.6705 74.7301 11.3409C74.9081 11.0114 75.1506 10.7462 75.4574 10.5455C75.7642 10.3447 76.1127 10.1932 76.5028 10.0909C76.8968 9.98864 77.3097 9.91667 77.7415 9.875C78.2491 9.82197 78.6581 9.77273 78.9688 9.72727C79.2794 9.67803 79.5047 9.60606 79.6449 9.51136C79.785 9.41667 79.8551 9.27652 79.8551 9.09091V9.05682C79.8551 8.69697 79.7415 8.41856 79.5142 8.22159C79.2907 8.02462 78.9725 7.92614 78.5597 7.92614C78.1241 7.92614 77.7775 8.02273 77.5199 8.21591C77.2623 8.4053 77.0919 8.64394 77.0085 8.93182L74.7699 8.75C74.8835 8.2197 75.107 7.76136 75.4403 7.375C75.7737 6.98485 76.2036 6.68561 76.7301 6.47727C77.2604 6.26515 77.8741 6.15909 78.571 6.15909C79.0559 6.15909 79.5199 6.21591 79.9631 6.32955C80.41 6.44318 80.8059 6.61932 81.1506 6.85795C81.4991 7.09659 81.7737 7.40341 81.9744 7.77841C82.1752 8.14962 82.2756 8.5947 82.2756 9.11364V15H79.9801V13.7898H79.9119C79.7718 14.0625 79.5843 14.303 79.3494 14.5114C79.1146 14.7159 78.8324 14.8769 78.5028 14.9943C78.1733 15.108 77.7926 15.1648 77.3608 15.1648ZM78.054 13.4943C78.41 13.4943 78.7244 13.4242 78.9972 13.2841C79.2699 13.1402 79.4839 12.947 79.6392 12.7045C79.7945 12.4621 79.8722 12.1875 79.8722 11.8807V10.9545C79.7964 11.0038 79.6922 11.0492 79.5597 11.0909C79.4309 11.1288 79.285 11.1648 79.1222 11.1989C78.9593 11.2292 78.7964 11.2576 78.6335 11.2841C78.4706 11.3068 78.3229 11.3277 78.1903 11.3466C77.9063 11.3883 77.6581 11.4545 77.446 11.5455C77.2339 11.6364 77.0691 11.7595 76.9517 11.9148C76.8343 12.0663 76.7756 12.2557 76.7756 12.483C76.7756 12.8125 76.8949 13.0644 77.1335 13.2386C77.3759 13.4091 77.6828 13.4943 78.054 13.4943ZM84.1534 15V6.27273H86.5V7.79545H86.5909C86.75 7.25379 87.017 6.8447 87.392 6.56818C87.767 6.28788 88.1989 6.14773 88.6875 6.14773C88.8087 6.14773 88.9394 6.1553 89.0795 6.17045C89.2197 6.18561 89.3428 6.20644 89.4489 6.23295V8.38068C89.3352 8.34659 89.178 8.31629 88.9773 8.28977C88.7765 8.26326 88.5928 8.25 88.4261 8.25C88.0701 8.25 87.7519 8.32765 87.4716 8.48295C87.1951 8.63447 86.9754 8.84659 86.8125 9.11932C86.6534 9.39205 86.5739 9.70644 86.5739 10.0625V15H84.1534ZM93.1207 9.95455V15H90.7003V6.27273H93.0071V7.8125H93.1094C93.3026 7.30492 93.6264 6.90341 94.081 6.60795C94.5355 6.30871 95.0866 6.15909 95.7344 6.15909C96.3404 6.15909 96.8688 6.29167 97.3196 6.55682C97.7704 6.82197 98.1207 7.20076 98.3707 7.69318C98.6207 8.18182 98.7457 8.76515 98.7457 9.44318V15H96.3253V9.875C96.3291 9.34091 96.1927 8.92424 95.9162 8.625C95.6397 8.32197 95.259 8.17045 94.7741 8.17045C94.4484 8.17045 94.1605 8.24053 93.9105 8.38068C93.6643 8.52083 93.4711 8.72538 93.331 8.99432C93.1946 9.25947 93.1245 9.57955 93.1207 9.95455ZM100.653 15V6.27273H103.074V15H100.653ZM101.869 5.14773C101.509 5.14773 101.201 5.02841 100.943 4.78977C100.689 4.54735 100.562 4.25758 100.562 3.92045C100.562 3.58712 100.689 3.30114 100.943 3.0625C101.201 2.82008 101.509 2.69886 101.869 2.69886C102.229 2.69886 102.536 2.82008 102.79 3.0625C103.047 3.30114 103.176 3.58712 103.176 3.92045C103.176 4.25758 103.047 4.54735 102.79 4.78977C102.536 5.02841 102.229 5.14773 101.869 5.14773ZM107.433 9.95455V15H105.013V6.27273H107.32V7.8125H107.422C107.615 7.30492 107.939 6.90341 108.393 6.60795C108.848 6.30871 109.399 6.15909 110.047 6.15909C110.653 6.15909 111.181 6.29167 111.632 6.55682C112.083 6.82197 112.433 7.20076 112.683 7.69318C112.933 8.18182 113.058 8.76515 113.058 9.44318V15H110.638V9.875C110.642 9.34091 110.505 8.92424 110.229 8.625C109.952 8.32197 109.571 8.17045 109.087 8.17045C108.761 8.17045 108.473 8.24053 108.223 8.38068C107.977 8.52083 107.784 8.72538 107.643 8.99432C107.507 9.25947 107.437 9.57955 107.433 9.95455ZM118.898 18.4545C118.114 18.4545 117.441 18.3466 116.881 18.1307C116.324 17.9186 115.881 17.6288 115.551 17.2614C115.222 16.8939 115.008 16.4811 114.909 16.0227L117.148 15.7216C117.216 15.8958 117.324 16.0587 117.472 16.2102C117.619 16.3617 117.814 16.483 118.057 16.5739C118.303 16.6686 118.602 16.7159 118.955 16.7159C119.481 16.7159 119.915 16.5871 120.256 16.3295C120.6 16.0758 120.773 15.6496 120.773 15.0511V13.4545H120.67C120.564 13.697 120.405 13.9261 120.193 14.142C119.981 14.358 119.708 14.5341 119.375 14.6705C119.042 14.8068 118.644 14.875 118.182 14.875C117.527 14.875 116.93 14.7235 116.392 14.4205C115.858 14.1136 115.432 13.6458 115.114 13.017C114.799 12.3845 114.642 11.5852 114.642 10.6193C114.642 9.63068 114.803 8.80492 115.125 8.14205C115.447 7.47917 115.875 6.98295 116.409 6.65341C116.947 6.32386 117.536 6.15909 118.176 6.15909C118.665 6.15909 119.074 6.24242 119.403 6.40909C119.733 6.57197 119.998 6.77652 120.199 7.02273C120.403 7.26515 120.561 7.50379 120.67 7.73864H120.761V6.27273H123.165V15.0852C123.165 15.8277 122.983 16.4489 122.619 16.9489C122.256 17.4489 121.752 17.8239 121.108 18.0739C120.468 18.3277 119.731 18.4545 118.898 18.4545ZM118.949 13.0568C119.339 13.0568 119.669 12.9602 119.938 12.767C120.21 12.5701 120.419 12.2898 120.562 11.9261C120.71 11.5587 120.784 11.1193 120.784 10.608C120.784 10.0966 120.712 9.65341 120.568 9.27841C120.424 8.89962 120.216 8.60606 119.943 8.39773C119.67 8.18939 119.339 8.08523 118.949 8.08523C118.551 8.08523 118.216 8.19318 117.943 8.40909C117.67 8.62121 117.464 8.91667 117.324 9.29545C117.184 9.67424 117.114 10.1117 117.114 10.608C117.114 11.1117 117.184 11.5473 117.324 11.9148C117.468 12.2784 117.674 12.5606 117.943 12.7614C118.216 12.9583 118.551 13.0568 118.949 13.0568Z" fill="white"/>
</svg>
