<svg id="Layer_1" data-name="Layer 1" xmlns="http://www.w3.org/2000/svg" xmlns:xlink="http://www.w3.org/1999/xlink" viewBox="0 0 128 127.98"><defs><style>.cls-1{fill:#fff;}.cls-2{mask:url(#mask);}.cls-3{fill:#65ccee;}.cls-4{fill:#23b5e9;}.cls-5{fill:#fdfeff;}</style><mask id="mask" x="0" y="-0.01" width="128" height="128" maskUnits="userSpaceOnUse"><g transform="translate(1460.01 -956.33)"><g id="mask5_2469_15201" data-name="mask5 2469 15201"><path class="cls-1" d="M-1332,956.32h-128v128h128Z"/></g></g></mask></defs><g class="cls-2"><path class="cls-3" d="M-1332,1020.32c0,3.32-3.25,6.36-3.73,9.55s1.63,7.15.61,10.23-5,5-6.5,7.93-.68,7.27-2.6,9.91-6.32,3.21-8.63,5.52-2.88,6.71-5.53,8.64-7,1.1-9.91,2.6-4.79,5.48-7.92,6.5-7-1.12-10.24-.61-6.22,3.72-9.55,3.72-6.36-3.25-9.54-3.72-7.15,1.63-10.24.61-5-5-7.92-6.5-7.32-.68-9.92-2.6-3.25-6.32-5.52-8.64-6.71-2.87-8.64-5.52-1.1-7-2.6-9.91-5.48-4.8-6.5-7.93,1.12-7,.6-10.23-3.72-6.23-3.72-9.55,3.25-6.36,3.72-9.56-1.62-7.15-.6-10.22,5-5,6.5-7.93.69-7.31,2.6-9.92,6.32-3.21,8.64-5.52,2.88-6.7,5.52-8.63,7-1.11,9.92-2.6,4.78-5.48,7.92-6.5,7,1.12,10.24.61,6.21-3.72,9.54-3.72,6.36,3.25,9.55,3.72,7.15-1.63,10.24-.61,5,5,7.92,6.5,7.31.67,9.91,2.6,3.25,6.32,5.53,8.63,6.7,2.87,8.63,5.52,1.11,7,2.6,9.92,5.49,4.79,6.5,7.93-1.12,7-.61,10.22S-1332,1017-1332,1020.32Z" transform="translate(1460.01 -956.33)"/><path class="cls-4" d="M-1338.29,1020.32c0,3-2.91,5.74-3.36,8.61s1.45,6.45.55,9.22-4.53,4.54-5.87,7.15-.6,6.57-2.34,8.94-5.69,2.89-7.79,5-2.59,6-5,7.79-6.3,1-8.94,2.34-4.31,5-7.14,5.87-6.28-1-9.23-.55S-1393,1078-1396,1078s-5.74-2.91-8.61-3.36-6.45,1.45-9.23.55-4.54-4.53-7.14-5.87-6.57-.61-8.94-2.34-2.9-5.69-5-7.79-6-2.59-7.79-5-1-6.3-2.34-8.94-5-4.31-5.87-7.15,1-6.27.55-9.22-3.36-5.61-3.36-8.61,2.91-5.74,3.36-8.61-1.45-6.45-.55-9.23,4.53-4.54,5.87-7.15.61-6.56,2.34-8.94,5.68-2.9,7.79-5,2.59-6,5-7.78,6.3-1,8.94-2.35,4.31-4.94,7.14-5.86,6.28,1,9.23.55,5.61-3.36,8.61-3.36,5.74,2.91,8.61,3.36,6.45-1.45,9.23-.55,4.54,4.53,7.14,5.87,6.57.61,8.94,2.34,2.89,5.69,5,7.78,6,2.6,7.79,5,1,6.3,2.34,8.94,5,4.32,5.87,7.15-1,6.28-.55,9.23S-1338.29,1017.31-1338.29,1020.32Z" transform="translate(1460.01 -956.33)"/><path class="cls-1" d="M-1345.93,1020.32c0,2.6-2.53,5-2.92,7.47s1.26,5.59.47,8-3.92,3.93-5.09,6.2-.52,5.68-2,7.75-4.94,2.52-6.75,4.32-2.25,5.25-4.33,6.76-5.46.86-7.75,2-3.75,4.29-6.2,5.09-5.44-.88-8-.47-4.88,2.91-7.48,2.91-5-2.52-7.47-2.91-5.59,1.26-8,.47-3.93-3.93-6.19-5.09-5.69-.53-7.76-2-2.51-4.95-4.33-6.76-5.24-2.25-6.75-4.32-.86-5.47-2-7.76-4.29-3.74-5.09-6.2.88-5.44.48-8-2.92-4.88-2.92-7.47,2.53-5,2.92-7.48-1.26-5.59-.48-8,3.93-3.93,5.09-6.2.53-5.69,2-7.76,5-2.51,6.75-4.32,2.25-5.25,4.33-6.75,5.46-.87,7.76-2,3.74-4.29,6.19-5.09,5.45.88,8,.48,4.87-2.91,7.47-2.91,5,2.51,7.48,2.91,5.59-1.26,8-.48,3.93,3.94,6.2,5.09,5.69.54,7.76,2,2.51,4.94,4.32,6.75,5.24,2.25,6.75,4.32.86,5.47,2,7.76,4.29,3.75,5.09,6.2-.88,5.45-.47,8S-1345.93,1017.71-1345.93,1020.32Z" transform="translate(1460.01 -956.33)"/><path class="cls-4" d="M-1386.2,983.32a2.35,2.35,0,0,1,.63,1.39c.84,3.94,1.71,7.87,2.56,11.81a6,6,0,0,0,.11.74c-8.62-4.38-17.16-4.39-25.87,0,.22-1,.4-2,.59-2.89q1.08-5,2.15-9.94a2.17,2.17,0,0,1,.58-1.11Z" transform="translate(1460.01 -956.33)"/><path class="cls-4" d="M-1373.07,1020.65a22.75,22.75,0,0,1-3.84,12.64,22.73,22.73,0,0,1-10.21,8.38,22.82,22.82,0,0,1-13.14,1.3,22.76,22.76,0,0,1-11.65-6.23,22.76,22.76,0,0,1-6.23-11.65,22.74,22.74,0,0,1,1.29-13.14,22.73,22.73,0,0,1,8.38-10.21,22.72,22.72,0,0,1,12.63-3.84,22.79,22.79,0,0,1,16.08,6.67A22.84,22.84,0,0,1-1373.07,1020.65Zm-4.71,0a18,18,0,0,0-3-10,18,18,0,0,0-8.12-6.66,18.13,18.13,0,0,0-10.45-1,18,18,0,0,0-9.24,5,18.06,18.06,0,0,0-4.93,9.27,18,18,0,0,0,1.06,10.44,18,18,0,0,0,6.68,8.1,18.15,18.15,0,0,0,10.06,3,18.12,18.12,0,0,0,12.73-5.34,18.13,18.13,0,0,0,5.27-12.77Z" transform="translate(1460.01 -956.33)"/><path class="cls-4" d="M-1408.77,1044c8.64,4.38,17.21,4.4,25.78,0,.16.26,0,.5,0,.7l-2.61,12.16c-.18.82-.45,1-1.31,1h-17.79c-.68,0-1.12-.23-1.26-.9l-2.71-12.65A1.63,1.63,0,0,1-1408.77,1044Z" transform="translate(1460.01 -956.33)"/><path class="cls-5" d="M-1396.27,1034.76a14.12,14.12,0,0,0,7.9-2.11,14.09,14.09,0,0,0,5.4-6.14,14.05,14.05,0,0,0,1.09-8.11,14.08,14.08,0,0,0-3.59-7.35,14.1,14.1,0,0,0-7.06-4.12,14.15,14.15,0,0,0-8.17.5,14.1,14.1,0,0,0-6.52,4.93,14.19,14.19,0,0,0-2.68,7.73,14.13,14.13,0,0,0,.87,5.46,14.12,14.12,0,0,0,2.9,4.7,14.05,14.05,0,0,0,4.48,3.24A14.28,14.28,0,0,0-1396.27,1034.76Z" transform="translate(1460.01 -956.33)"/><path class="cls-4" d="M-1396.27,1034.76a14.12,14.12,0,0,1-7.77-2.64,14,14,0,0,1-5-6.51,14.1,14.1,0,0,1-.52-8.18,14.12,14.12,0,0,1,4.12-7.1,14.08,14.08,0,0,1,7.37-3.6,14.11,14.11,0,0,1,8.13,1.1,14.19,14.19,0,0,1,6.14,5.44,14.16,14.16,0,0,1,2.07,7.94,14,14,0,0,1-4.47,9.79A14.07,14.07,0,0,1-1396.27,1034.76Z" transform="translate(1460.01 -956.33)"/><path class="cls-4" d="M-1386.2,983.32a2.35,2.35,0,0,1,.63,1.39c.84,3.94,1.71,7.87,2.56,11.81a6,6,0,0,0,.11.74c-8.62-4.38-17.16-4.39-25.87,0,.22-1,.4-2,.59-2.89q1.08-5,2.15-9.94a2.17,2.17,0,0,1,.58-1.11Z" transform="translate(1460.01 -956.33)"/><path class="cls-4" d="M-1373.07,1020.65a22.75,22.75,0,0,1-3.84,12.64,22.73,22.73,0,0,1-10.21,8.38,22.82,22.82,0,0,1-13.14,1.3,22.76,22.76,0,0,1-11.65-6.23,22.76,22.76,0,0,1-6.23-11.65,22.74,22.74,0,0,1,1.29-13.14,22.73,22.73,0,0,1,8.38-10.21,22.72,22.72,0,0,1,12.63-3.84,22.79,22.79,0,0,1,16.08,6.67A22.84,22.84,0,0,1-1373.07,1020.65Zm-4.71,0a18,18,0,0,0-3-10,18,18,0,0,0-8.12-6.66,18.13,18.13,0,0,0-10.45-1,18,18,0,0,0-9.24,5,18.06,18.06,0,0,0-4.93,9.27,18,18,0,0,0,1.06,10.44,18,18,0,0,0,6.68,8.1,18.15,18.15,0,0,0,10.06,3,18.12,18.12,0,0,0,12.73-5.34,18.13,18.13,0,0,0,5.27-12.77Z" transform="translate(1460.01 -956.33)"/><path class="cls-4" d="M-1408.77,1044c8.64,4.38,17.21,4.4,25.78,0,.16.26,0,.5,0,.7l-2.61,12.16c-.18.82-.45,1-1.31,1h-17.79c-.68,0-1.12-.23-1.26-.9l-2.71-12.65A1.63,1.63,0,0,1-1408.77,1044Z" transform="translate(1460.01 -956.33)"/><path class="cls-5" d="M-1396.27,1034.76a14.12,14.12,0,0,0,7.9-2.11,14.09,14.09,0,0,0,5.4-6.14,14.05,14.05,0,0,0,1.09-8.11,14.08,14.08,0,0,0-3.59-7.35,14.1,14.1,0,0,0-7.06-4.12,14.15,14.15,0,0,0-8.17.5,14.1,14.1,0,0,0-6.52,4.93,14.19,14.19,0,0,0-2.68,7.73,14.13,14.13,0,0,0,.87,5.46,14.12,14.12,0,0,0,2.9,4.7,14.05,14.05,0,0,0,4.48,3.24A14.28,14.28,0,0,0-1396.27,1034.76Z" transform="translate(1460.01 -956.33)"/><path class="cls-4" d="M-1396.27,1034.76a14.12,14.12,0,0,1-7.77-2.64,14,14,0,0,1-5-6.51,14.1,14.1,0,0,1-.52-8.18,14.12,14.12,0,0,1,4.12-7.1,14.08,14.08,0,0,1,7.37-3.6,14.11,14.11,0,0,1,8.13,1.1,14.19,14.19,0,0,1,6.14,5.44,14.16,14.16,0,0,1,2.07,7.94,14,14,0,0,1-4.47,9.79A14.07,14.07,0,0,1-1396.27,1034.76Z" transform="translate(1460.01 -956.33)"/><path class="cls-1" d="M-1404.55,1028.81a.84.84,0,0,1-.61-.24.78.78,0,0,1-.24-.6.81.81,0,0,1,.24-.59.85.85,0,0,1,.61-.24h17.11a.85.85,0,0,1,.61.24.81.81,0,0,1,.24.59.81.81,0,0,1-.24.6.85.85,0,0,1-.61.24Zm1.71-2.51a1.67,1.67,0,0,1-1.21-.49,1.61,1.61,0,0,1-.5-1.18v-4.19h4.6l1.47,2.89a.9.9,0,0,0,.31.33.8.8,0,0,0,.44.13,1,1,0,0,0,.45-.1.71.71,0,0,0,.32-.32l2.63-4.49.56,1.1a.73.73,0,0,0,.32.35.88.88,0,0,0,.45.11h5.56v4.19a1.61,1.61,0,0,1-.5,1.18,1.71,1.71,0,0,1-1.21.49Zm5.2-5.12-1-1.95a.78.78,0,0,0-.32-.33.81.81,0,0,0-.45-.13h-5.13v-3.34a1.63,1.63,0,0,1,.5-1.19,1.71,1.71,0,0,1,1.21-.49h13.69a1.71,1.71,0,0,1,1.21.49,1.63,1.63,0,0,1,.5,1.19v3.34h-5l-1-2a.73.73,0,0,0-.33-.34.88.88,0,0,0-.44-.12.8.8,0,0,0-.43.12.79.79,0,0,0-.3.3Z" transform="translate(1460.01 -956.33)"/><path class="cls-4" d="M-1385.65,1026.93h-20.7v2.82h20.7Z" transform="translate(1460.01 -956.33)"/></g></svg>