<svg id="Layer_1" data-name="Layer 1" xmlns="http://www.w3.org/2000/svg" xmlns:xlink="http://www.w3.org/1999/xlink" viewBox="0 0 128 127.98"><defs><style>.cls-1{fill:#fff;}.cls-2{mask:url(#mask);}.cls-3{fill:#e36b6b;}.cls-4{fill:#e42e2c;}.cls-5{fill:#fdfeff;}</style><mask id="mask" x="0" y="-0.01" width="128" height="128" maskUnits="userSpaceOnUse"><g transform="translate(60.01 -957.33)"><g id="mask6_2469_15201" data-name="mask6 2469 15201"><path class="cls-1" d="M68,957.32H-60v128H68Z"/></g></g></mask></defs><g class="cls-2"><path class="cls-3" d="M68,1021.32c0,3.32-3.25,6.36-3.73,9.55s1.63,7.15.61,10.23-5,5-6.5,7.93-.68,7.27-2.6,9.91-6.32,3.21-8.64,5.52-2.87,6.71-5.52,8.64-7,1.1-9.91,2.6-4.79,5.48-7.93,6.5-7-1.12-10.23-.61-6.22,3.72-9.55,3.72-6.36-3.25-9.55-3.72-7.15,1.63-10.23.61-5-5-7.93-6.5-7.31-.68-9.91-2.6-3.25-6.32-5.52-8.64-6.71-2.87-8.64-5.52-1.11-7-2.6-9.91-5.48-4.8-6.5-7.93,1.12-7,.6-10.23-3.72-6.23-3.72-9.55,3.25-6.36,3.72-9.56-1.62-7.15-.6-10.22,5-5,6.5-7.93.68-7.31,2.6-9.92,6.32-3.21,8.64-5.52,2.87-6.7,5.52-8.63,7-1.11,9.91-2.6,4.79-5.48,7.93-6.5,7,1.12,10.23.61S.66,957.33,4,957.33s6.36,3.25,9.55,3.72,7.15-1.63,10.23-.61,5,5,7.93,6.5,7.31.67,9.91,2.6,3.25,6.32,5.52,8.63,6.71,2.87,8.64,5.52,1.1,7,2.6,9.92,5.48,4.79,6.5,7.93-1.12,7-.61,10.22S68,1018,68,1021.32Z" transform="translate(60.01 -957.33)"/><path class="cls-4" d="M61.71,1021c0,3-2.91,5.74-3.36,8.61s1.45,6.44.55,9.22-4.54,4.54-5.87,7.15-.61,6.57-2.35,8.94-5.68,2.89-7.78,5-2.59,6-5,7.78-6.31,1-8.94,2.35-4.31,5-7.14,5.87-6.28-1-9.23-.55S7,1078.75,4,1078.75s-5.74-2.91-8.61-3.36-6.46,1.45-9.23.55-4.54-4.54-7.15-5.87-6.56-.62-8.93-2.35-2.9-5.68-5-7.78-6.05-2.59-7.8-5-1-6.3-2.34-8.94-4.94-4.31-5.86-7.15,1-6.27.54-9.22-3.35-5.61-3.35-8.61,2.91-5.74,3.35-8.61-1.44-6.45-.54-9.23,4.53-4.54,5.86-7.15.61-6.56,2.34-8.94,5.69-2.9,7.8-5,2.59-6,5-7.78,6.3-1,8.93-2.35,4.32-4.94,7.15-5.86,6.28,1,9.23.55S1,963.32,4,963.32s5.73,2.91,8.61,3.36,6.45-1.45,9.23-.55S26.37,970.66,29,972s6.57.61,8.94,2.34,2.89,5.68,5,7.78,6,2.6,7.79,5,1,6.3,2.34,8.94,4.95,4.32,5.87,7.15-1,6.28-.55,9.23S61.71,1018,61.71,1021Z" transform="translate(60.01 -957.33)"/><path class="cls-1" d="M54.06,1021.32c0,2.6-2.52,5-2.91,7.47s1.26,5.59.47,8-3.93,3.93-5.09,6.2-.53,5.68-2,7.75-5,2.52-6.75,4.32-2.25,5.25-4.33,6.76-5.46.86-7.75,2-3.75,4.29-6.2,5.09-5.45-.88-8-.47-4.87,2.91-7.47,2.91-5-2.52-7.48-2.91-5.59,1.26-8,.47-3.93-3.93-6.2-5.09-5.69-.53-7.76-2-2.51-4.95-4.32-6.76-5.24-2.25-6.75-4.32-.86-5.47-2-7.76-4.29-3.74-5.1-6.2.89-5.44.48-8-2.91-4.88-2.91-7.47,2.52-5,2.91-7.48-1.26-5.59-.48-8,3.94-3.93,5.1-6.2.53-5.69,2-7.76,5-2.51,6.75-4.32,2.25-5.25,4.32-6.75,5.47-.87,7.76-2,3.75-4.29,6.2-5.09,5.45.88,8,.48,4.88-2.91,7.48-2.91,5,2.51,7.47,2.91,5.59-1.26,8-.48,3.93,3.94,6.2,5.09,5.68.54,7.76,2,2.51,4.94,4.32,6.75,5.24,2.25,6.75,4.32.86,5.47,2,7.76,4.29,3.75,5.09,6.2-.88,5.45-.47,8S54.06,1018.71,54.06,1021.32Z" transform="translate(60.01 -957.33)"/><path class="cls-4" d="M13.8,984.32a2.35,2.35,0,0,1,.63,1.39c.84,3.94,1.71,7.87,2.56,11.81a6,6,0,0,0,.11.74c-8.62-4.38-17.17-4.39-25.87,0,.21-1,.39-2,.59-2.89q1.08-5,2.14-9.94a2.27,2.27,0,0,1,.59-1.11Z" transform="translate(60.01 -957.33)"/><path class="cls-4" d="M26.92,1021.65a22.74,22.74,0,0,1-38.83,16.09,22.68,22.68,0,0,1-6.23-11.65,22.75,22.75,0,1,1,45.06-4.44Zm-4.7,0a18,18,0,0,0-3-10A18,18,0,0,0,.6,1003.94a18.07,18.07,0,0,0,3.62,35.78A18.14,18.14,0,0,0,17,1034.38a18.18,18.18,0,0,0,5.27-12.77Z" transform="translate(60.01 -957.33)"/><path class="cls-4" d="M-8.77,1045c8.64,4.38,17.2,4.4,25.78,0,.16.26,0,.5,0,.7q-1.31,6.09-2.62,12.16c-.18.82-.44,1-1.3,1H-4.7c-.69,0-1.12-.23-1.26-.9l-2.71-12.65A1.63,1.63,0,0,1-8.77,1045Z" transform="translate(60.01 -957.33)"/><path class="cls-5" d="M3.73,1035.76a14.1,14.1,0,0,0,13.3-8.25,14.12,14.12,0,0,0-2.5-15.46,14.1,14.1,0,1,0-20.66,19.2,13.94,13.94,0,0,0,4.48,3.24A14.28,14.28,0,0,0,3.73,1035.76Z" transform="translate(60.01 -957.33)"/><path class="cls-4" d="M3.73,1035.76A14.09,14.09,0,0,1-4,1033.12a14,14,0,0,1-5-6.51A14.1,14.1,0,1,1,13.81,1032,14.08,14.08,0,0,1,3.73,1035.76Z" transform="translate(60.01 -957.33)"/><path class="cls-4" d="M13.8,984.32a2.35,2.35,0,0,1,.63,1.39c.84,3.94,1.71,7.87,2.56,11.81a6,6,0,0,0,.11.74c-8.62-4.38-17.17-4.39-25.87,0,.21-1,.39-2,.59-2.89q1.08-5,2.14-9.94a2.27,2.27,0,0,1,.59-1.11Z" transform="translate(60.01 -957.33)"/><path class="cls-4" d="M26.92,1021.65a22.74,22.74,0,0,1-38.83,16.09,22.68,22.68,0,0,1-6.23-11.65,22.75,22.75,0,1,1,45.06-4.44Zm-4.7,0a18,18,0,0,0-3-10A18,18,0,0,0,.6,1003.94a18.07,18.07,0,0,0,3.62,35.78A18.14,18.14,0,0,0,17,1034.38a18.18,18.18,0,0,0,5.27-12.77Z" transform="translate(60.01 -957.33)"/><path class="cls-4" d="M-8.77,1045c8.64,4.38,17.2,4.4,25.78,0,.16.26,0,.5,0,.7q-1.31,6.09-2.62,12.16c-.18.82-.44,1-1.3,1H-4.7c-.69,0-1.12-.23-1.26-.9l-2.71-12.65A1.63,1.63,0,0,1-8.77,1045Z" transform="translate(60.01 -957.33)"/><path class="cls-5" d="M3.73,1035.76a14.1,14.1,0,0,0,13.3-8.25,14.12,14.12,0,0,0-2.5-15.46,14.1,14.1,0,1,0-20.66,19.2,13.94,13.94,0,0,0,4.48,3.24A14.28,14.28,0,0,0,3.73,1035.76Z" transform="translate(60.01 -957.33)"/><path class="cls-4" d="M3.73,1035.76A14.09,14.09,0,0,1-4,1033.12a14,14,0,0,1-5-6.51A14.1,14.1,0,1,1,13.81,1032,14.08,14.08,0,0,1,3.73,1035.76Z" transform="translate(60.01 -957.33)"/><path class="cls-1" d="M-4.55,1029.81a.84.84,0,0,1-.61-.24.79.79,0,0,1-.25-.6.78.78,0,0,1,.25-.59.84.84,0,0,1,.61-.24H12.56a.85.85,0,0,1,.61.24.81.81,0,0,1,.24.59.79.79,0,0,1-.25.6.81.81,0,0,1-.6.24Zm1.71-2.51a1.65,1.65,0,0,1-1.21-.49,1.57,1.57,0,0,1-.5-1.18v-4.19H.05l1.47,2.89a.82.82,0,0,0,.31.33.78.78,0,0,0,.44.13,1,1,0,0,0,.45-.1.71.71,0,0,0,.32-.32l2.63-4.49.56,1.1a.68.68,0,0,0,.32.35.88.88,0,0,0,.45.11h5.56v4.19a1.58,1.58,0,0,1-.51,1.18,1.69,1.69,0,0,1-1.2.49Zm5.19-5.12-1-1.95a.78.78,0,0,0-.32-.33.81.81,0,0,0-.45-.13H-4.55v-3.34a1.63,1.63,0,0,1,.5-1.19,1.71,1.71,0,0,1,1.21-.49H10.85a1.67,1.67,0,0,1,1.2.49,1.6,1.6,0,0,1,.51,1.19v3.34h-5l-1-2a.71.71,0,0,0-.32-.34.89.89,0,0,0-.45-.12.82.82,0,0,0-.43.12.83.83,0,0,0-.29.3Z" transform="translate(60.01 -957.33)"/><path class="cls-4" d="M14.35,1027.93H-6.35v2.82h20.7Z" transform="translate(60.01 -957.33)"/></g></svg>