<svg id="OBJECTS" xmlns="http://www.w3.org/2000/svg" xmlns:xlink="http://www.w3.org/1999/xlink" viewBox="0 0 128 127.98"><defs><style>.cls-1{fill:none;}.cls-2{clip-path:url(#clip-path);}.cls-3{fill:#b3b3b3;}.cls-4{fill:#a0a0a0;}.cls-5{fill:#f2f2f2;}.cls-6{fill:#9f9f9f;}.cls-7{fill:#fbfbfb;}</style><clipPath id="clip-path" transform="translate(-476.04 297.93)"><rect class="cls-1" x="476.04" y="-297.94" width="128" height="128"/></clipPath></defs><g class="cls-2"><path class="cls-3" d="M604-233.94c0,3.33-3.25,6.37-3.73,9.55s1.63,7.15.61,10.23-5,5-6.5,7.93-.68,7.27-2.6,9.91-6.32,3.21-8.64,5.53-2.87,6.7-5.52,8.63-7,1.11-9.91,2.6-4.79,5.49-7.92,6.5-7-1.12-10.24-.6-6.22,3.72-9.55,3.72-6.36-3.25-9.55-3.72-7.15,1.62-10.23.6-5-5-7.92-6.5-7.32-.68-9.92-2.6-3.25-6.32-5.52-8.63-6.71-2.88-8.64-5.53-1.1-7-2.6-9.91-5.48-4.79-6.5-7.93,1.12-7,.6-10.23-3.72-6.22-3.72-9.55,3.25-6.36,3.72-9.55-1.62-7.15-.6-10.23,5-5,6.5-7.92.68-7.31,2.6-9.92,6.32-3.21,8.64-5.53,2.87-6.7,5.52-8.63,7-1.1,9.92-2.6,4.78-5.48,7.92-6.5,7,1.13,10.23.61,6.22-3.72,9.55-3.72,6.36,3.25,9.55,3.72,7.15-1.62,10.24-.61,5,5,7.92,6.5,7.31.68,9.91,2.6,3.25,6.33,5.52,8.63,6.71,2.88,8.64,5.53,1.11,7,2.6,9.92,5.49,4.78,6.5,7.92-1.12,7-.61,10.23S604-237.28,604-233.94Z" transform="translate(-476.04 297.93)"/><path class="cls-4" d="M597.76-233.94c0,3-2.91,5.74-3.36,8.62s1.45,6.44.55,9.22-4.53,4.53-5.87,7.15-.61,6.56-2.34,8.94-5.69,2.89-7.79,5-2.59,6-5,7.78-6.3,1-8.94,2.35-4.31,5-7.14,5.86-6.28-1-9.23-.55-5.61,3.37-8.61,3.37-5.74-2.91-8.61-3.37-6.45,1.46-9.23.55-4.54-4.53-7.14-5.86-6.57-.62-8.94-2.35-2.9-5.69-5-7.78-6-2.6-7.79-5-1-6.31-2.34-8.94-4.95-4.32-5.87-7.15,1-6.27.54-9.22-3.35-5.62-3.35-8.62,2.91-5.74,3.35-8.61-1.44-6.45-.54-9.23,4.53-4.53,5.87-7.15.61-6.55,2.34-8.94,5.68-2.9,7.79-5,2.59-6,5-7.79,6.3-1,8.94-2.35,4.31-4.94,7.14-5.85,6.28,1,9.23.54,5.61-3.36,8.61-3.36,5.74,2.91,8.61,3.36,6.45-1.45,9.23-.54,4.54,4.52,7.14,5.86,6.57.61,8.94,2.34,2.89,5.69,5,7.79,6,2.6,7.79,5,1,6.3,2.34,8.94,4.95,4.32,5.87,7.15-1,6.28-.55,9.23S597.76-236.94,597.76-233.94Z" transform="translate(-476.04 297.93)"/><path class="cls-5" d="M590.12-233.94c0,2.6-2.53,5-2.92,7.47s1.26,5.6.47,8-3.92,3.93-5.09,6.2-.52,5.69-2,7.75-4.95,2.52-6.75,4.32-2.25,5.25-4.33,6.77-5.46.86-7.75,2-3.75,4.29-6.2,5.08-5.44-.87-8-.47-4.88,2.91-7.48,2.91-5-2.52-7.47-2.91-5.59,1.26-8,.47-3.93-3.93-6.2-5.08-5.68-.54-7.76-2-2.51-5-4.32-6.77-5.24-2.25-6.75-4.32-.86-5.47-2-7.76-4.29-3.73-5.1-6.2.89-5.44.48-8-2.91-4.87-2.91-7.47,2.52-5,2.91-7.47-1.26-5.59-.48-8,3.94-3.94,5.1-6.2.53-5.69,2-7.76,5-2.51,6.75-4.32,2.25-5.25,4.32-6.76,5.47-.87,7.76-2,3.75-4.29,6.2-5.08,5.45.88,8,.48S537.44-284,540-284s5,2.52,7.48,2.92,5.59-1.26,8-.48,3.93,3.93,6.2,5.08,5.69.54,7.76,2,2.51,4.94,4.32,6.76,5.24,2.25,6.75,4.32.86,5.47,2,7.76,4.29,3.74,5.09,6.2-.88,5.44-.47,8S590.12-236.54,590.12-233.94Z" transform="translate(-476.04 297.93)"/><path class="cls-6" d="M549.85-270.94a2.35,2.35,0,0,1,.63,1.4c.84,3.93,1.71,7.86,2.56,11.8a5.54,5.54,0,0,0,.11.74c-8.62-4.38-17.17-4.39-25.87,0,.21-1,.4-2,.59-2.89.72-3.32,1.44-6.64,2.14-9.93a2.3,2.3,0,0,1,.59-1.12Z" transform="translate(-476.04 297.93)"/><path class="cls-6" d="M563-233.61A22.74,22.74,0,0,1,559.14-221a22.67,22.67,0,0,1-10.21,8.38,22.66,22.66,0,0,1-13.14,1.3,22.74,22.74,0,0,1-11.65-6.22,22.72,22.72,0,0,1-6.23-11.65,22.77,22.77,0,0,1,1.29-13.15,22.76,22.76,0,0,1,8.37-10.21,22.75,22.75,0,0,1,12.64-3.84,22.77,22.77,0,0,1,16.08,6.68A22.75,22.75,0,0,1,563-233.61Zm-4.7,0a18,18,0,0,0-3-10,18.08,18.08,0,0,0-8.12-6.65,18.06,18.06,0,0,0-10.45-1,18.13,18.13,0,0,0-9.25,5,18.08,18.08,0,0,0-4.92,9.26,18.14,18.14,0,0,0,1,10.45,18.1,18.1,0,0,0,6.69,8.09,18.07,18.07,0,0,0,10.06,3A18.12,18.12,0,0,0,553-220.88a18.15,18.15,0,0,0,5.27-12.76Z" transform="translate(-476.04 297.93)"/><path class="cls-6" d="M527.28-210.22c8.64,4.39,17.2,4.41,25.78.05.16.27,0,.5,0,.71l-2.61,12.16c-.18.82-.45,1-1.31,1H531.35c-.69,0-1.12-.22-1.26-.9l-2.71-12.64A1.61,1.61,0,0,1,527.28-210.22Z" transform="translate(-476.04 297.93)"/><path class="cls-7" d="M539.78-219.5a14,14,0,0,0,7.9-2.11,14,14,0,0,0,5.4-6.14,14,14,0,0,0,1.09-8.1,14,14,0,0,0-3.59-7.35,14.07,14.07,0,0,0-7.06-4.12,14.06,14.06,0,0,0-8.17.49,14.12,14.12,0,0,0-6.52,4.94,14.05,14.05,0,0,0-2.68,7.72,14.1,14.1,0,0,0,.87,5.46,14.06,14.06,0,0,0,2.9,4.71,14.06,14.06,0,0,0,4.48,3.23A13.91,13.91,0,0,0,539.78-219.5Z" transform="translate(-476.04 297.93)"/><path class="cls-6" d="M539.78-219.5a14.1,14.1,0,0,1-7.77-2.63,14.15,14.15,0,0,1-5-6.51,14.14,14.14,0,0,1-.52-8.19,14,14,0,0,1,4.12-7.09,14.1,14.1,0,0,1,7.37-3.61,14.13,14.13,0,0,1,8.13,1.11,14,14,0,0,1,6.13,5.44,14,14,0,0,1,2.08,7.93,14,14,0,0,1-4.47,9.79A14.08,14.08,0,0,1,539.78-219.5Z" transform="translate(-476.04 297.93)"/><path class="cls-6" d="M549.85-270.94a2.35,2.35,0,0,1,.63,1.4c.84,3.93,1.71,7.86,2.56,11.8a5.54,5.54,0,0,0,.11.74c-8.62-4.38-17.17-4.39-25.87,0,.21-1,.4-2,.59-2.89.72-3.32,1.44-6.64,2.14-9.93a2.3,2.3,0,0,1,.59-1.12Z" transform="translate(-476.04 297.93)"/><path class="cls-6" d="M563-233.61A22.74,22.74,0,0,1,559.14-221a22.67,22.67,0,0,1-10.21,8.38,22.66,22.66,0,0,1-13.14,1.3,22.74,22.74,0,0,1-11.65-6.22,22.76,22.76,0,0,1-6.23-11.65,22.77,22.77,0,0,1,1.29-13.15,22.76,22.76,0,0,1,8.37-10.21,22.75,22.75,0,0,1,12.64-3.84,22.77,22.77,0,0,1,16.08,6.68A22.75,22.75,0,0,1,563-233.61Zm-4.7,0a18,18,0,0,0-3-10,18.08,18.08,0,0,0-8.12-6.65,18.06,18.06,0,0,0-10.45-1,18.13,18.13,0,0,0-9.25,5,18.08,18.08,0,0,0-4.92,9.26,18.14,18.14,0,0,0,1,10.45,18.1,18.1,0,0,0,6.69,8.09,18.07,18.07,0,0,0,10.06,3A18.12,18.12,0,0,0,553-220.88a18.15,18.15,0,0,0,5.27-12.76Z" transform="translate(-476.04 297.93)"/><path class="cls-6" d="M527.28-210.22c8.64,4.39,17.2,4.41,25.78.05.16.27,0,.5,0,.71l-2.61,12.16c-.18.82-.45,1-1.31,1H531.35c-.69,0-1.12-.22-1.26-.9l-2.71-12.64A1.61,1.61,0,0,1,527.28-210.22Z" transform="translate(-476.04 297.93)"/><path class="cls-7" d="M539.78-219.5a14,14,0,0,0,7.9-2.11,14,14,0,0,0,5.4-6.14,14,14,0,0,0,1.09-8.1,14,14,0,0,0-3.59-7.35,14.07,14.07,0,0,0-7.06-4.12,14.06,14.06,0,0,0-8.17.49,14.12,14.12,0,0,0-6.52,4.94,14.05,14.05,0,0,0-2.68,7.72,14.1,14.1,0,0,0,.87,5.46,14.06,14.06,0,0,0,2.9,4.71,14.06,14.06,0,0,0,4.48,3.23A13.91,13.91,0,0,0,539.78-219.5Z" transform="translate(-476.04 297.93)"/><path class="cls-6" d="M539.78-219.5a14.1,14.1,0,0,1-7.77-2.63,14.15,14.15,0,0,1-5-6.51,14.14,14.14,0,0,1-.52-8.19,14,14,0,0,1,4.12-7.09,14.1,14.1,0,0,1,7.37-3.61,14.13,14.13,0,0,1,8.13,1.11,14,14,0,0,1,6.13,5.44,14,14,0,0,1,2.08,7.93,14,14,0,0,1-4.47,9.79A14.08,14.08,0,0,1,539.78-219.5Z" transform="translate(-476.04 297.93)"/><path class="cls-5" d="M531.5-225.45a.84.84,0,0,1-.61-.24.78.78,0,0,1-.25-.59.82.82,0,0,1,.25-.6.84.84,0,0,1,.61-.24h17.11a.85.85,0,0,1,.61.24.81.81,0,0,1,.24.6.81.81,0,0,1-.24.59.85.85,0,0,1-.61.24Zm1.71-2.51a1.67,1.67,0,0,1-1.21-.49,1.61,1.61,0,0,1-.5-1.18v-4.18h4.6l1.47,2.88a.85.85,0,0,0,.31.34.86.86,0,0,0,.44.12,1,1,0,0,0,.45-.1.69.69,0,0,0,.32-.31l2.63-4.5.56,1.11a.66.66,0,0,0,.32.34.89.89,0,0,0,.45.12h5.56v4.18a1.58,1.58,0,0,1-.51,1.18,1.63,1.63,0,0,1-1.2.49Zm5.2-5.12-1-1.94a.81.81,0,0,0-.32-.34.89.89,0,0,0-.45-.12H531.5v-3.35A1.61,1.61,0,0,1,532-240a1.67,1.67,0,0,1,1.21-.49H546.9a1.63,1.63,0,0,1,1.2.49,1.58,1.58,0,0,1,.51,1.18v3.35h-5l-1.05-2.05a.68.68,0,0,0-.32-.35.88.88,0,0,0-.45-.11.76.76,0,0,0-.42.11.86.86,0,0,0-.3.3Z" transform="translate(-476.04 297.93)"/><rect class="cls-6" x="53.66" y="70.6" width="20.7" height="2.82"/></g></svg>