<svg width="136" height="136" viewBox="0 0 136 136" fill="none" xmlns="http://www.w3.org/2000/svg">
<circle cx="68.0004" cy="67.9999" r="55.561" fill="#B6B6B6"/>
<circle cx="68" cy="68" r="64" stroke="#D9D9D9" stroke-width="8"/>
<g clip-path="url(#clip0_1949_7612)">
<path fill-rule="evenodd" clip-rule="evenodd" d="M92.2222 40.6H78.0567C76.6333 36.772 72.9056 34 68.5 34C64.0944 34 60.3667 36.772 58.9433 40.6H44.7778C41.05 40.6 38 43.57 38 47.2V93.4C38 97.03 41.05 100 44.7778 100H92.2222C95.95 100 99 97.03 99 93.4V47.2C99 43.57 95.95 40.6 92.2222 40.6ZM68.5 40.6C70.3639 40.6 71.8889 42.085 71.8889 43.9C71.8889 45.715 70.3639 47.2 68.5 47.2C66.6361 47.2 65.1111 45.715 65.1111 43.9C65.1111 42.085 66.6361 40.6 68.5 40.6ZM71.8889 86.8H54.9444C53.0806 86.8 51.5556 85.315 51.5556 83.5C51.5556 81.685 53.0806 80.2 54.9444 80.2H71.8889C73.7528 80.2 75.2778 81.685 75.2778 83.5C75.2778 85.315 73.7528 86.8 71.8889 86.8ZM82.0556 73.6H54.9444C53.0806 73.6 51.5556 72.115 51.5556 70.3C51.5556 68.485 53.0806 67 54.9444 67H82.0556C83.9194 67 85.4444 68.485 85.4444 70.3C85.4444 72.115 83.9194 73.6 82.0556 73.6ZM82.0556 60.4H54.9444C53.0806 60.4 51.5556 58.915 51.5556 57.1C51.5556 55.285 53.0806 53.8 54.9444 53.8H82.0556C83.9194 53.8 85.4444 55.285 85.4444 57.1C85.4444 58.915 83.9194 60.4 82.0556 60.4Z" fill="white"/>
</g>
<defs>
<clipPath id="clip0_1949_7612">
<rect width="61" height="66" fill="white" transform="translate(38 34)"/>
</clipPath>
</defs>
</svg>
