<svg width="137" height="137" viewBox="0 0 137 137" fill="none" xmlns="http://www.w3.org/2000/svg">
<path d="M68.4999 14.8682L114.946 41.6841V95.3158L68.4999 122.132L22.0535 95.3158V41.6841L68.4999 14.8682Z" fill="#B6B6B6"/>
<path d="M13.1773 36.5594L68.5 4.6188L123.823 36.5594V100.441L68.5 132.381L13.1773 100.441V36.5594Z" stroke="#D9D9D9" stroke-width="8"/>
<g clip-path="url(#clip0_1949_7614)">
<path fill-rule="evenodd" clip-rule="evenodd" d="M92.2222 39.6H78.0567C76.6333 35.772 72.9056 33 68.5 33C64.0944 33 60.3667 35.772 58.9433 39.6H44.7778C41.05 39.6 38 42.57 38 46.2V92.4C38 96.03 41.05 99 44.7778 99H92.2222C95.95 99 99 96.03 99 92.4V46.2C99 42.57 95.95 39.6 92.2222 39.6ZM68.5 39.6C70.3639 39.6 71.8889 41.085 71.8889 42.9C71.8889 44.715 70.3639 46.2 68.5 46.2C66.6361 46.2 65.1111 44.715 65.1111 42.9C65.1111 41.085 66.6361 39.6 68.5 39.6ZM71.8889 85.8H54.9444C53.0806 85.8 51.5556 84.315 51.5556 82.5C51.5556 80.685 53.0806 79.2 54.9444 79.2H71.8889C73.7528 79.2 75.2778 80.685 75.2778 82.5C75.2778 84.315 73.7528 85.8 71.8889 85.8ZM82.0556 72.6H54.9444C53.0806 72.6 51.5556 71.115 51.5556 69.3C51.5556 67.485 53.0806 66 54.9444 66H82.0556C83.9194 66 85.4444 67.485 85.4444 69.3C85.4444 71.115 83.9194 72.6 82.0556 72.6ZM82.0556 59.4H54.9444C53.0806 59.4 51.5556 57.915 51.5556 56.1C51.5556 54.285 53.0806 52.8 54.9444 52.8H82.0556C83.9194 52.8 85.4444 54.285 85.4444 56.1C85.4444 57.915 83.9194 59.4 82.0556 59.4Z" fill="white"/>
</g>
<defs>
<clipPath id="clip0_1949_7614">
<rect width="61" height="66" fill="white" transform="translate(38 33)"/>
</clipPath>
</defs>
</svg>
