<svg width="160" height="153" viewBox="0 0 160 153" fill="none" xmlns="http://www.w3.org/2000/svg">
<rect x="5.7819" y="-0.0134528" width="102.679" height="102.702" rx="11" transform="matrix(0.72113 -0.6928 0.724346 0.689437 1.62214 80.6795)" stroke="#D9D9D9" stroke-width="8"/>
<rect width="86.5184" height="86.5364" rx="9" transform="matrix(0.72113 -0.6928 0.724346 0.689437 17.4629 76.6394)" fill="#B6B6B6"/>
<g clip-path="url(#clip0_1949_7613)">
<path fill-rule="evenodd" clip-rule="evenodd" d="M104.222 47.6H90.0567C88.6333 43.772 84.9056 41 80.5 41C76.0944 41 72.3667 43.772 70.9433 47.6H56.7778C53.05 47.6 50 50.57 50 54.2V100.4C50 104.03 53.05 107 56.7778 107H104.222C107.95 107 111 104.03 111 100.4V54.2C111 50.57 107.95 47.6 104.222 47.6ZM80.5 47.6C82.3639 47.6 83.8889 49.085 83.8889 50.9C83.8889 52.715 82.3639 54.2 80.5 54.2C78.6361 54.2 77.1111 52.715 77.1111 50.9C77.1111 49.085 78.6361 47.6 80.5 47.6ZM83.8889 93.8H66.9444C65.0806 93.8 63.5556 92.315 63.5556 90.5C63.5556 88.685 65.0806 87.2 66.9444 87.2H83.8889C85.7528 87.2 87.2778 88.685 87.2778 90.5C87.2778 92.315 85.7528 93.8 83.8889 93.8ZM94.0556 80.6H66.9444C65.0806 80.6 63.5556 79.115 63.5556 77.3C63.5556 75.485 65.0806 74 66.9444 74H94.0556C95.9194 74 97.4444 75.485 97.4444 77.3C97.4444 79.115 95.9194 80.6 94.0556 80.6ZM94.0556 67.4H66.9444C65.0806 67.4 63.5556 65.915 63.5556 64.1C63.5556 62.285 65.0806 60.8 66.9444 60.8H94.0556C95.9194 60.8 97.4444 62.285 97.4444 64.1C97.4444 65.915 95.9194 67.4 94.0556 67.4Z" fill="white"/>
</g>
<defs>
<clipPath id="clip0_1949_7613">
<rect width="61" height="66" fill="white" transform="translate(50 41)"/>
</clipPath>
</defs>
</svg>
