<svg width="137" height="137" viewBox="0 0 137 137" fill="none" xmlns="http://www.w3.org/2000/svg">
<path d="M68.4999 14.8682L95.3158 22.0535L114.946 41.6841L122.132 68.4999L114.946 95.3158L95.3158 114.946L68.4999 122.132L41.6841 114.946L22.0535 95.3158L14.8682 68.4999L22.0535 41.6841L41.6841 22.0535L68.4999 14.8682Z" fill="#B6B6B6"/>
<path d="M36.3206 12.7636L68.5 4.14111L100.679 12.7636L124.236 36.3206L132.859 68.5L124.236 100.679L100.679 124.236L68.5 132.859L36.3206 124.236L12.7636 100.679L4.14111 68.5L12.7636 36.3206L36.3206 12.7636Z" stroke="#D9D9D9" stroke-width="8"/>
<g clip-path="url(#clip0_1949_7615)">
<path fill-rule="evenodd" clip-rule="evenodd" d="M92.2222 41.6H78.0567C76.6333 37.772 72.9056 35 68.5 35C64.0944 35 60.3667 37.772 58.9433 41.6H44.7778C41.05 41.6 38 44.57 38 48.2V94.4C38 98.03 41.05 101 44.7778 101H92.2222C95.95 101 99 98.03 99 94.4V48.2C99 44.57 95.95 41.6 92.2222 41.6ZM68.5 41.6C70.3639 41.6 71.8889 43.085 71.8889 44.9C71.8889 46.715 70.3639 48.2 68.5 48.2C66.6361 48.2 65.1111 46.715 65.1111 44.9C65.1111 43.085 66.6361 41.6 68.5 41.6ZM71.8889 87.8H54.9444C53.0806 87.8 51.5556 86.315 51.5556 84.5C51.5556 82.685 53.0806 81.2 54.9444 81.2H71.8889C73.7528 81.2 75.2778 82.685 75.2778 84.5C75.2778 86.315 73.7528 87.8 71.8889 87.8ZM82.0556 74.6H54.9444C53.0806 74.6 51.5556 73.115 51.5556 71.3C51.5556 69.485 53.0806 68 54.9444 68H82.0556C83.9194 68 85.4444 69.485 85.4444 71.3C85.4444 73.115 83.9194 74.6 82.0556 74.6ZM82.0556 61.4H54.9444C53.0806 61.4 51.5556 59.915 51.5556 58.1C51.5556 56.285 53.0806 54.8 54.9444 54.8H82.0556C83.9194 54.8 85.4444 56.285 85.4444 58.1C85.4444 59.915 83.9194 61.4 82.0556 61.4Z" fill="white"/>
</g>
<defs>
<clipPath id="clip0_1949_7615">
<rect width="61" height="66" fill="white" transform="translate(38 35)"/>
</clipPath>
</defs>
</svg>
