<svg id="Layer_1" data-name="Layer 1" xmlns="http://www.w3.org/2000/svg" xmlns:xlink="http://www.w3.org/1999/xlink" viewBox="0 0 128 127.98"><defs><style>.cls-1{fill:#fff;}.cls-2{mask:url(#mask);}.cls-3{fill:#7efdc8;}.cls-4{fill:#1cd185;}</style><mask id="mask" x="0" y="-0.01" width="128" height="128" maskUnits="userSpaceOnUse"><g transform="translate(1545.07 -1821.76)"><g id="mask38_2487_14771" data-name="mask38 2487 14771"><path class="cls-1" d="M-1417.07,1821.75h-128v128h128Z"/></g></g></mask></defs><g class="cls-2"><path class="cls-3" d="M-1417.07,1885.75c0,3.33-3.25,6.37-3.73,9.55s1.62,7.15.61,10.23-5,5-6.5,7.93-.69,7.27-2.6,9.91-6.33,3.21-8.64,5.53-2.88,6.7-5.53,8.63-7,1.11-9.91,2.6-4.78,5.49-7.92,6.5-7-1.12-10.24-.6-6.21,3.72-9.54,3.72-6.37-3.25-9.55-3.72-7.15,1.62-10.24.6-5-5-7.92-6.5-7.31-.68-9.91-2.6-3.25-6.32-5.53-8.63-6.71-2.88-8.63-5.53-1.11-7-2.6-9.91-5.49-4.79-6.5-7.93,1.12-7,.6-10.23-3.72-6.22-3.72-9.55,3.25-6.36,3.72-9.55-1.63-7.15-.6-10.23,5-5,6.5-7.92.68-7.31,2.6-9.92,6.32-3.21,8.63-5.53,2.88-6.7,5.53-8.63,7-1.1,9.91-2.6,4.79-5.48,7.92-6.5,7,1.13,10.24.61,6.21-3.72,9.55-3.72,6.36,3.25,9.54,3.72,7.15-1.62,10.24-.61,5,5,7.92,6.5,7.31.68,9.91,2.6,3.25,6.33,5.53,8.63,6.7,2.88,8.64,5.53,1.1,7,2.6,9.92,5.48,4.78,6.5,7.92-1.13,7-.61,10.23S-1417.07,1882.41-1417.07,1885.75Z" transform="translate(1545.07 -1821.76)"/><path class="cls-4" d="M-1423.36,1885.75c0,3-2.9,5.74-3.36,8.62s1.46,6.44.55,9.22-4.53,4.53-5.86,7.15-.61,6.56-2.35,8.94-5.69,2.89-7.78,5-2.6,6-5,7.78-6.31,1-8.94,2.35-4.32,5-7.14,5.86-6.28-1-9.23-.55-5.62,3.37-8.62,3.37-5.73-2.91-8.61-3.37-6.45,1.46-9.23.55-4.53-4.53-7.14-5.86-6.57-.62-8.94-2.35-2.9-5.69-5-7.78-6-2.6-7.79-5-1-6.31-2.34-8.94-5-4.32-5.87-7.15,1-6.27.55-9.22-3.36-5.62-3.36-8.62,2.91-5.74,3.36-8.61-1.45-6.45-.55-9.23,4.54-4.53,5.87-7.15.61-6.55,2.34-8.94,5.69-2.9,7.79-5,2.59-6,5-7.79,6.31-1,8.94-2.35,4.31-4.94,7.14-5.85,6.28,1,9.23.54,5.62-3.36,8.61-3.36,5.74,2.91,8.62,3.36,6.45-1.45,9.23-.54,4.53,4.52,7.14,5.86,6.56.61,8.94,2.34,2.89,5.69,5,7.79,6,2.6,7.79,5,1,6.3,2.34,8.94,5,4.32,5.86,7.15-1,6.28-.55,9.23S-1423.36,1882.75-1423.36,1885.75Z" transform="translate(1545.07 -1821.76)"/><path class="cls-1" d="M-1431,1885.75c0,2.6-2.53,5-2.92,7.47s1.26,5.6.47,8-3.92,3.93-5.08,6.2-.53,5.69-2,7.75-5,2.52-6.76,4.33-2.25,5.24-4.33,6.76-5.46.86-7.75,2-3.74,4.29-6.2,5.08-5.44-.87-8-.47-4.87,2.91-7.47,2.91-5-2.52-7.48-2.91-5.59,1.26-8,.47-3.94-3.93-6.2-5.08-5.69-.54-7.76-2-2.51-5-4.32-6.76-5.24-2.26-6.76-4.33-.86-5.47-2-7.76-4.29-3.73-5.09-6.2.88-5.44.48-8-2.92-4.87-2.92-7.47,2.53-5,2.92-7.47-1.26-5.59-.48-8,3.93-3.94,5.09-6.2.53-5.69,2-7.76,4.95-2.51,6.76-4.32,2.25-5.25,4.32-6.76,5.47-.87,7.76-2,3.74-4.29,6.2-5.08,5.44.88,8,.48,4.88-2.92,7.48-2.92,5,2.52,7.47,2.92,5.59-1.26,8-.48,3.94,3.93,6.2,5.08,5.69.54,7.76,2,2.51,4.94,4.32,6.76,5.24,2.25,6.76,4.32.86,5.47,2,7.76,4.29,3.74,5.08,6.2-.87,5.44-.47,8S-1431,1883.15-1431,1885.75Z" transform="translate(1545.07 -1821.76)"/><path class="cls-4" d="M-1472.57,1901.75a11.39,11.39,0,0,1-11.5-11.5,11.39,11.39,0,0,1,11.5-11.5,11.39,11.39,0,0,1,11.5,11.5A11.39,11.39,0,0,1-1472.57,1901.75Z" transform="translate(1545.07 -1821.76)"/><path class="cls-4" d="M-1454.18,1861.68H-1508a1.94,1.94,0,0,0-2.07,2v40.75a1.93,1.93,0,0,0,2.07,2h22.77v-9a15.1,15.1,0,0,1-2.07-7.34,14.29,14.29,0,0,1,14.49-14.26,14.29,14.29,0,0,1,14.49,14.26,15.1,15.1,0,0,1-2.07,7.34v9h6.21a1.93,1.93,0,0,0,2.07-2v-40.75A1.94,1.94,0,0,0-1454.18,1861.68Zm-39.33,22.42h-8.28a1.94,1.94,0,0,1-2.07-2,1.94,1.94,0,0,1,2.07-2h8.28a1.94,1.94,0,0,1,2.07,2A1.94,1.94,0,0,1-1493.51,1884.1Zm6.21-8.15h-14.49a1.94,1.94,0,0,1-2.07-2,1.94,1.94,0,0,1,2.07-2h14.49a1.94,1.94,0,0,1,2.07,2A1.94,1.94,0,0,1-1487.3,1876Z" transform="translate(1545.07 -1821.76)"/><path class="cls-4" d="M-1472.81,1904.47a14.28,14.28,0,0,1-8.28-2.64v12.83a2.46,2.46,0,0,0,.83,1.63,2,2,0,0,0,1.86.21l5.59-4.46,5.59,4.46c.21,0,.41.2.62.2a2.89,2.89,0,0,0,1.24-.41,1.84,1.84,0,0,0,.83-1.63v-12.83A14.28,14.28,0,0,1-1472.81,1904.47Z" transform="translate(1545.07 -1821.76)"/></g></svg>