<svg width="137" height="137" viewBox="0 0 137 137" fill="none" xmlns="http://www.w3.org/2000/svg">
<path d="M68.4999 14.8682L114.946 41.6841V95.3158L68.4999 122.132L22.0535 95.3158V41.6841L68.4999 14.8682Z" fill="#B6B6B6"/>
<path d="M13.1773 36.5594L68.5 4.6188L123.823 36.5594V100.441L68.5 132.381L13.1773 100.441V36.5594Z" stroke="#D9D9D9" stroke-width="8"/>
<path d="M78.3125 82.2453C71.575 82.2453 66.2812 77.1221 66.2812 70.6018C66.2812 64.0814 71.575 58.9583 78.3125 58.9583C85.05 58.9583 90.3438 64.0814 90.3438 70.6018C90.3438 77.1221 85.05 82.2453 78.3125 82.2453Z" fill="white"/>
<path d="M99.9688 38H37.4062C35.9625 38 35 38.9315 35 40.3287V86.9028C35 88.3 35.9625 89.2315 37.4062 89.2315H63.875V78.9852C62.4312 76.4236 61.4688 73.6292 61.4688 70.6018C61.4688 61.5199 68.9281 54.3009 78.3125 54.3009C87.6969 54.3009 95.1562 61.5199 95.1562 70.6018C95.1562 73.6292 94.1937 76.4236 92.75 78.9852V89.2315H99.9688C101.412 89.2315 102.375 88.3 102.375 86.9028V40.3287C102.375 38.9315 101.412 38 99.9688 38ZM54.25 63.6157H44.625C43.1812 63.6157 42.2188 62.6843 42.2188 61.287C42.2188 59.8898 43.1812 58.9583 44.625 58.9583H54.25C55.6938 58.9583 56.6562 59.8898 56.6562 61.287C56.6562 62.6843 55.6938 63.6157 54.25 63.6157ZM61.4688 54.3009H44.625C43.1812 54.3009 42.2188 53.3694 42.2188 51.9722C42.2188 50.575 43.1812 49.6435 44.625 49.6435H61.4688C62.9125 49.6435 63.875 50.575 63.875 51.9722C63.875 53.3694 62.9125 54.3009 61.4688 54.3009Z" fill="white"/>
<path d="M78.3125 86.9028C74.7031 86.9028 71.3344 85.7385 68.6875 83.8755V98.5463C68.6875 99.2449 69.1687 99.9435 69.65 100.409C70.3719 100.875 71.0937 100.875 71.8156 100.642L78.3125 95.5524L84.8094 100.642C85.05 100.642 85.2906 100.875 85.5312 100.875C86.0125 100.875 86.4937 100.642 86.975 100.409C87.6969 99.9435 87.9375 99.2449 87.9375 98.5463V83.8755C85.2906 85.7385 81.9219 86.9028 78.3125 86.9028Z" fill="white"/>
</svg>
