<svg width="137" height="137" viewBox="0 0 137 137" fill="none" xmlns="http://www.w3.org/2000/svg">
<path d="M68.4999 14.8682L95.3158 22.0535L114.946 41.6841L122.132 68.4999L114.946 95.3158L95.3158 114.946L68.4999 122.132L41.6841 114.946L22.0535 95.3158L14.8682 68.4999L22.0535 41.6841L41.6841 22.0535L68.4999 14.8682Z" fill="#B6B6B6"/>
<path d="M36.3206 12.7636L68.5 4.14111L100.679 12.7636L124.236 36.3206L132.859 68.5L124.236 100.679L100.679 124.236L68.5 132.859L36.3206 124.236L12.7636 100.679L4.14111 68.5L12.7636 36.3206L36.3206 12.7636Z" stroke="#D9D9D9" stroke-width="8"/>
<path d="M78.3125 84.875C71.575 84.875 66.2812 79.1 66.2812 71.75C66.2812 64.4 71.575 58.625 78.3125 58.625C85.05 58.625 90.3438 64.4 90.3438 71.75C90.3438 79.1 85.05 84.875 78.3125 84.875Z" fill="white"/>
<path d="M99.9688 35H37.4062C35.9625 35 35 36.05 35 37.625V90.125C35 91.7 35.9625 92.75 37.4062 92.75H63.875V81.2C62.4312 78.3125 61.4688 75.1625 61.4688 71.75C61.4688 61.5125 68.9281 53.375 78.3125 53.375C87.6969 53.375 95.1562 61.5125 95.1562 71.75C95.1562 75.1625 94.1937 78.3125 92.75 81.2V92.75H99.9688C101.412 92.75 102.375 91.7 102.375 90.125V37.625C102.375 36.05 101.412 35 99.9688 35ZM54.25 63.875H44.625C43.1812 63.875 42.2188 62.825 42.2188 61.25C42.2188 59.675 43.1812 58.625 44.625 58.625H54.25C55.6938 58.625 56.6562 59.675 56.6562 61.25C56.6562 62.825 55.6938 63.875 54.25 63.875ZM61.4688 53.375H44.625C43.1812 53.375 42.2188 52.325 42.2188 50.75C42.2188 49.175 43.1812 48.125 44.625 48.125H61.4688C62.9125 48.125 63.875 49.175 63.875 50.75C63.875 52.325 62.9125 53.375 61.4688 53.375Z" fill="white"/>
<path d="M78.3125 90.1249C74.7031 90.1249 71.3344 88.8124 68.6875 86.7124V103.25C68.6875 104.037 69.1687 104.825 69.65 105.35C70.3719 105.875 71.0937 105.875 71.8156 105.612L78.3125 99.875L84.8094 105.612C85.05 105.612 85.2906 105.875 85.5312 105.875C86.0125 105.875 86.4937 105.612 86.975 105.35C87.6969 104.825 87.9375 104.037 87.9375 103.25V86.7124C85.2906 88.8124 81.9219 90.1249 78.3125 90.1249Z" fill="white"/>
</svg>
