<svg id="OBJECTS" xmlns="http://www.w3.org/2000/svg" viewBox="0 0 128 127.98"><defs><style>.cls-1{fill:#b3b3b3;}.cls-2{fill:#a0a0a0;}.cls-3{fill:#f2f2f2;}.cls-4{fill:#9f9f9f;}</style></defs><path class="cls-1" d="M1004-229.94c0,3.32-3.25,6.36-3.73,9.54s1.63,7.15.61,10.23-5,5-6.5,7.93-.68,7.27-2.6,9.91-6.32,3.21-8.64,5.53-2.87,6.7-5.52,8.64-7,1.1-9.91,2.6-4.79,5.48-7.92,6.5-7-1.12-10.24-.61-6.22,3.72-9.55,3.72-6.36-3.25-9.55-3.72-7.15,1.62-10.23.61-5-5-7.92-6.5-7.32-.69-9.92-2.6-3.25-6.32-5.52-8.64-6.71-2.88-8.64-5.53-1.1-7-2.6-9.91-5.48-4.79-6.5-7.93,1.12-7,.6-10.23-3.72-6.22-3.72-9.54,3.25-6.37,3.72-9.56-1.62-7.15-.6-10.23,5-5,6.5-7.92.68-7.31,2.6-9.92,6.32-3.21,8.64-5.53,2.87-6.7,5.52-8.62,7-1.11,9.92-2.6,4.78-5.49,7.92-6.5,7,1.12,10.23.61,6.22-3.73,9.55-3.73,6.36,3.25,9.55,3.73,7.15-1.63,10.24-.61,5,5,7.92,6.5,7.31.67,9.91,2.6,3.25,6.32,5.52,8.62,6.71,2.88,8.64,5.53,1.11,7,2.6,9.92,5.49,4.79,6.5,7.92-1.12,7-.61,10.23S1004-233.29,1004-229.94Z" transform="translate(-876.04 293.94)"/><path class="cls-2" d="M997.76-229.94c0,3-2.91,5.73-3.36,8.61s1.45,6.44.55,9.22-4.53,4.53-5.87,7.15-.61,6.57-2.34,8.94-5.69,2.89-7.79,5-2.59,6-5,7.78-6.3,1-8.94,2.35-4.31,4.95-7.14,5.87-6.28-1-9.23-.56-5.61,3.37-8.61,3.37-5.74-2.91-8.61-3.37-6.45,1.46-9.23.56-4.54-4.54-7.14-5.87-6.57-.62-8.94-2.35-2.9-5.69-5-7.78-6-2.59-7.79-5-1-6.31-2.34-8.94-4.95-4.31-5.87-7.15,1-6.27.54-9.22-3.35-5.62-3.35-8.61,2.91-5.75,3.35-8.62-1.44-6.45-.54-9.23,4.53-4.53,5.87-7.15.61-6.55,2.34-8.93,5.68-2.9,7.79-5,2.59-6.05,5-7.79,6.3-1,8.94-2.34,4.31-4.94,7.14-5.86,6.28,1,9.23.54,5.61-3.35,8.61-3.35,5.74,2.91,8.61,3.35,6.45-1.44,9.23-.54,4.54,4.52,7.14,5.86,6.57.61,8.94,2.34,2.89,5.69,5,7.79,6,2.6,7.79,5,1,6.29,2.34,8.93,4.95,4.33,5.87,7.15-1,6.28-.55,9.23S997.76-232.95,997.76-229.94Z" transform="translate(-876.04 293.94)"/><path class="cls-3" d="M990.12-229.94c0,2.6-2.53,5-2.92,7.46s1.26,5.6.47,8-3.92,3.94-5.09,6.2-.52,5.69-2,7.75-4.95,2.52-6.75,4.33-2.25,5.25-4.33,6.76-5.46.86-7.75,2-3.75,4.29-6.2,5.08-5.44-.87-8-.47-4.88,2.91-7.48,2.91-5-2.52-7.47-2.91-5.59,1.26-8,.47-3.93-3.93-6.2-5.08-5.68-.54-7.76-2-2.51-4.95-4.32-6.76-5.24-2.25-6.75-4.33-.86-5.46-2-7.75-4.29-3.74-5.1-6.2.89-5.45.48-8-2.91-4.87-2.91-7.46,2.52-5,2.91-7.48-1.26-5.59-.48-8,3.94-3.93,5.1-6.2.53-5.69,2-7.76,5-2.51,6.75-4.32,2.25-5.25,4.32-6.75,5.47-.87,7.76-2,3.75-4.29,6.2-5.09,5.45.88,8,.48S937.44-280,940-280s5,2.52,7.48,2.92,5.59-1.26,8-.48,3.93,3.93,6.2,5.09,5.69.53,7.76,2,2.51,4.94,4.32,6.75,5.24,2.25,6.75,4.32.86,5.47,2,7.76,4.29,3.74,5.09,6.2-.88,5.44-.47,8S990.12-232.55,990.12-229.94Z" transform="translate(-876.04 293.94)"/><path class="cls-4" d="M948.54-213.94a11.39,11.39,0,0,1-11.5-11.5,11.39,11.39,0,0,1,11.5-11.5,11.39,11.39,0,0,1,11.5,11.5A11.39,11.39,0,0,1,948.54-213.94Z" transform="translate(-876.04 293.94)"/><path class="cls-4" d="M966.94-254H913.11a1.94,1.94,0,0,0-2.07,2v40.75a1.94,1.94,0,0,0,2.07,2h22.77v-9a15.13,15.13,0,0,1-2.07-7.34,14.29,14.29,0,0,1,14.5-14.26,14.29,14.29,0,0,1,14.49,14.26,15.13,15.13,0,0,1-2.07,7.34v9h6.21a1.94,1.94,0,0,0,2.07-2V-252A1.94,1.94,0,0,0,966.94-254ZM927.6-231.59h-8.28a1.94,1.94,0,0,1-2.07-2,1.94,1.94,0,0,1,2.07-2h8.28a1.94,1.94,0,0,1,2.07,2A1.94,1.94,0,0,1,927.6-231.59Zm6.21-8.15H919.32a1.94,1.94,0,0,1-2.07-2,1.94,1.94,0,0,1,2.07-2h14.49a1.94,1.94,0,0,1,2.07,2A1.94,1.94,0,0,1,933.81-239.74Z" transform="translate(-876.04 293.94)"/><path class="cls-4" d="M948.31-211.22a14.24,14.24,0,0,1-8.29-2.65V-201a2.51,2.51,0,0,0,.83,1.63,2.06,2.06,0,0,0,1.87.21l5.59-4.46,5.59,4.46c.2,0,.41.2.62.2a2.89,2.89,0,0,0,1.24-.41,1.84,1.84,0,0,0,.83-1.63v-12.84A14.24,14.24,0,0,1,948.31-211.22Z" transform="translate(-876.04 293.94)"/></svg>