<svg width="136" height="136" viewBox="0 0 136 136" fill="none" xmlns="http://www.w3.org/2000/svg">
<circle cx="68.0004" cy="67.9999" r="55.561" fill="#B6B6B6"/>
<circle cx="68" cy="68" r="64" stroke="#D9D9D9" stroke-width="8"/>
<path d="M78.125 89C71.3875 89 66.0938 83.225 66.0938 75.875C66.0938 68.525 71.3875 62.75 78.125 62.75C84.8625 62.75 90.1562 68.525 90.1562 75.875C90.1562 83.225 84.8625 89 78.125 89Z" fill="white"/>
<path d="M99.7812 39.125H37.2188C35.775 39.125 34.8125 40.175 34.8125 41.75V94.25C34.8125 95.825 35.775 96.875 37.2188 96.875H63.6875V85.325C62.2437 82.4375 61.2812 79.2875 61.2812 75.875C61.2812 65.6375 68.7406 57.5 78.125 57.5C87.5094 57.5 94.9688 65.6375 94.9688 75.875C94.9688 79.2875 94.0062 82.4375 92.5625 85.325V96.875H99.7812C101.225 96.875 102.188 95.825 102.188 94.25V41.75C102.188 40.175 101.225 39.125 99.7812 39.125ZM54.0625 68H44.4375C42.9937 68 42.0312 66.95 42.0312 65.375C42.0312 63.8 42.9937 62.75 44.4375 62.75H54.0625C55.5063 62.75 56.4688 63.8 56.4688 65.375C56.4688 66.95 55.5063 68 54.0625 68ZM61.2812 57.5H44.4375C42.9937 57.5 42.0312 56.45 42.0312 54.875C42.0312 53.3 42.9937 52.25 44.4375 52.25H61.2812C62.725 52.25 63.6875 53.3 63.6875 54.875C63.6875 56.45 62.725 57.5 61.2812 57.5Z" fill="white"/>
<path d="M78.125 94.2499C74.5156 94.2499 71.1469 92.9374 68.5 90.8374V107.375C68.5 108.162 68.9812 108.95 69.4625 109.475C70.1844 110 70.9062 110 71.6281 109.737L78.125 104L84.6219 109.737C84.8625 109.737 85.1031 110 85.3438 110C85.825 110 86.3062 109.737 86.7875 109.475C87.5094 108.95 87.75 108.162 87.75 107.375V90.8374C85.1031 92.9374 81.7344 94.2499 78.125 94.2499Z" fill="white"/>
</svg>
