<svg width="160" height="153" viewBox="0 0 160 153" fill="none" xmlns="http://www.w3.org/2000/svg">
<rect x="5.7819" y="-0.0134528" width="102.679" height="102.702" rx="11" transform="matrix(0.72113 -0.6928 0.724346 0.689437 1.62214 80.6795)" stroke="#D9D9D9" stroke-width="8"/>
<rect width="86.5184" height="86.5364" rx="9" transform="matrix(0.72113 -0.6928 0.724346 0.689437 17.4629 76.6394)" fill="#B6B6B6"/>
<path d="M88.8832 90.4725C83.1457 90.4725 78.6377 85.5547 78.6377 79.2956C78.6377 73.0365 83.1457 68.1187 88.8832 68.1187C94.6207 68.1187 99.1288 73.0365 99.1288 79.2956C99.1288 85.5547 94.6207 90.4725 88.8832 90.4725Z" fill="white"/>
<path d="M107.326 48H54.0491C52.8196 48 52 48.8942 52 50.2354V94.9432C52 96.2844 52.8196 97.1786 54.0491 97.1786H76.5893V87.3429C75.3598 84.8839 74.5402 82.2015 74.5402 79.2955C74.5402 70.5774 80.8924 63.6477 88.8839 63.6477C96.8755 63.6477 103.228 70.5774 103.228 79.2955C103.228 82.2015 102.408 84.8839 101.179 87.3429V97.1786H107.326C108.555 97.1786 109.375 96.2844 109.375 94.9432V50.2354C109.375 48.8942 108.555 48 107.326 48ZM68.3929 72.5893H60.1964C58.967 72.5893 58.1473 71.6951 58.1473 70.3539C58.1473 69.0127 58.967 68.1185 60.1964 68.1185H68.3929C69.6223 68.1185 70.442 69.0127 70.442 70.3539C70.442 71.6951 69.6223 72.5893 68.3929 72.5893ZM74.5402 63.6477H60.1964C58.967 63.6477 58.1473 62.7536 58.1473 61.4123C58.1473 60.0711 58.967 59.1769 60.1964 59.1769H74.5402C75.7696 59.1769 76.5893 60.0711 76.5893 61.4123C76.5893 62.7536 75.7696 63.6477 74.5402 63.6477Z" fill="white"/>
<path d="M88.8839 94.9431C85.8103 94.9431 82.9415 93.8254 80.6875 92.0371V106.12C80.6875 106.791 81.0973 107.461 81.5071 107.908C82.1219 108.355 82.7366 108.355 83.3513 108.132L88.8839 103.246L94.4165 108.132C94.6214 108.132 94.8263 108.355 95.0312 108.355C95.4411 108.355 95.8509 108.132 96.2607 107.908C96.8754 107.461 97.0804 106.791 97.0804 106.12V92.0371C94.8263 93.8254 91.9576 94.9431 88.8839 94.9431Z" fill="white"/>
</svg>
