<svg width="136" height="136" viewBox="0 0 136 136" fill="none" xmlns="http://www.w3.org/2000/svg">
<circle cx="68.0004" cy="67.9999" r="55.561" fill="#B6B6B6"/>
<circle cx="68" cy="68" r="64" stroke="#D9D9D9" stroke-width="8"/>
<path d="M100.652 89.7684C99.3463 89.7684 98.4756 88.8977 98.4756 87.5916V59.2928C98.4756 57.9867 99.3463 57.116 100.652 57.116C101.959 57.116 102.829 57.9867 102.829 59.2928V87.5916C102.829 88.8977 101.959 89.7684 100.652 89.7684Z" fill="white"/>
<path d="M68.0002 78.8841C67.5648 78.8841 67.3471 78.8841 66.9118 78.6664L34.2593 61.2517C33.6063 60.8164 33.1709 60.1633 33.1709 59.2926C33.1709 58.4219 33.6063 57.7688 34.2593 57.3334L66.9118 39.9188C67.5648 39.4834 68.2178 39.4834 68.8709 39.9188L101.523 57.3334C102.176 57.7688 102.612 58.4219 102.612 59.2926C102.612 60.1633 102.176 60.8164 101.523 61.2517L68.8709 78.6664C68.6532 78.8841 68.4355 78.8841 68.0002 78.8841Z" fill="white"/>
<path d="M71.0473 82.367C70.1766 83.0201 69.0882 83.2378 67.9997 83.2378C66.9113 83.2378 65.8229 83.0201 64.9522 82.367L46.2314 72.5713V81.0609C46.2314 87.8091 56.8979 94.1219 67.9997 94.1219C79.1016 94.1219 89.768 87.8091 89.768 81.0609V72.5713L71.0473 82.367Z" fill="white"/>
</svg>
