<svg width="160" height="153" viewBox="0 0 160 153" fill="none" xmlns="http://www.w3.org/2000/svg">
<rect x="5.7819" y="-0.0134528" width="102.679" height="102.702" rx="11" transform="matrix(0.72113 -0.6928 0.724346 0.689437 1.62214 80.6795)" stroke="#D9D9D9" stroke-width="8"/>
<rect width="86.5184" height="86.5364" rx="9" transform="matrix(0.72113 -0.6928 0.724346 0.689437 17.4629 76.6394)" fill="#B6B6B6"/>
<path d="M112.656 98.7351C111.336 98.7351 110.456 97.8937 110.456 96.6316V69.2859C110.456 68.0238 111.336 67.1824 112.656 67.1824C113.976 67.1824 114.856 68.0238 114.856 69.2859V96.6316C114.856 97.8937 113.976 98.7351 112.656 98.7351Z" fill="white"/>
<path d="M79.6599 88.2172C79.22 88.2172 79 88.2172 78.5601 88.0069L45.5637 71.1788C44.9038 70.7581 44.4639 70.127 44.4639 69.2856C44.4639 68.4442 44.9038 67.8131 45.5637 67.3924L78.5601 50.5643C79.22 50.1436 79.8799 50.1436 80.5398 50.5643L113.536 67.3924C114.196 67.8131 114.636 68.4442 114.636 69.2856C114.636 70.127 114.196 70.7581 113.536 71.1788L80.5398 88.0069C80.3199 88.2172 80.0999 88.2172 79.6599 88.2172Z" fill="white"/>
<path d="M82.7393 91.583C81.8594 92.2141 80.7595 92.4244 79.6597 92.4244C78.5598 92.4244 77.4599 92.2141 76.58 91.583L57.6621 82.1172V90.3209C57.6621 96.8418 68.4409 102.942 79.6597 102.942C90.8784 102.942 101.657 96.8418 101.657 90.3209V82.1172L82.7393 91.583Z" fill="white"/>
</svg>
