<svg width="137" height="137" viewBox="0 0 137 137" fill="none" xmlns="http://www.w3.org/2000/svg">
<path d="M68.4999 14.8682L95.3158 22.0535L114.946 41.6841L122.132 68.4999L114.946 95.3158L95.3158 114.946L68.4999 122.132L41.6841 114.946L22.0535 95.3158L14.8682 68.4999L22.0535 41.6841L41.6841 22.0535L68.4999 14.8682Z" fill="#B6B6B6"/>
<path d="M36.3206 12.7636L68.5 4.14111L100.679 12.7636L124.236 36.3206L132.859 68.5L124.236 100.679L100.679 124.236L68.5 132.859L36.3206 124.236L12.7636 100.679L4.14111 68.5L12.7636 36.3206L36.3206 12.7636Z" stroke="#D9D9D9" stroke-width="8"/>
<path d="M103.22 92.9118C101.818 92.9118 100.884 92.0182 100.884 90.6779V61.6363C100.884 60.2959 101.818 59.4023 103.22 59.4023C104.622 59.4023 105.556 60.2959 105.556 61.6363V90.6779C105.556 92.0182 104.622 92.9118 103.22 92.9118Z" fill="white"/>
<path d="M68.1776 81.7418C67.7104 81.7418 67.4767 81.7418 67.0095 81.5184L31.9669 63.6467C31.2661 63.1999 30.7988 62.5297 30.7988 61.6361C30.7988 60.7425 31.2661 60.0723 31.9669 59.6255L67.0095 41.7538C67.7104 41.307 68.4112 41.307 69.1121 41.7538L104.155 59.6255C104.856 60.0723 105.323 60.7425 105.323 61.6361C105.323 62.5297 104.856 63.1999 104.155 63.6467L69.1121 81.5184C68.8785 81.7418 68.6448 81.7418 68.1776 81.7418Z" fill="white"/>
<path d="M71.4478 85.3163C70.5133 85.9865 69.3453 86.2099 68.1772 86.2099C67.0091 86.2099 65.841 85.9865 64.9065 85.3163L44.8154 75.2634V83.9759C44.8154 90.9012 56.2627 97.3797 68.1772 97.3797C80.0916 97.3797 91.5389 90.9012 91.5389 83.9759V75.2634L71.4478 85.3163Z" fill="white"/>
</svg>
