<svg id="TEXT" xmlns="http://www.w3.org/2000/svg" viewBox="0 0 136.7 210.89"><defs><style>.cls-1{fill:#9a408f;}.cls-2{fill:#d064a5;}.cls-3{fill:#433959;}.cls-4{fill:#ff6f89;}.cls-5{fill:#f8ffe1;}</style></defs><path class="cls-1" d="M152,270.51a3.87,3.87,0,0,0-3.88,3.88,3.8,3.8,0,0,0,.28,1.43l-16.35,4-8.77-15.19a3.88,3.88,0,1,0-3.87,0l-8.77,15.19-16.34-4a4,4,0,0,0,.28-1.43,3.88,3.88,0,1,0-3.88,3.88,3.92,3.92,0,0,0,1-.14L100,305.19h42.82L151,278.13a4,4,0,0,0,1,.14,3.88,3.88,0,0,0,0-7.76Z" transform="translate(-52.74 -257.38)"/><polygon class="cls-2" points="68.63 7.23 68.63 47.8 90.03 47.8 98.3 20.75 95.68 18.44 79.33 22.42 70.56 7.23 68.63 7.23"/><path class="cls-1" d="M121.37,290.15c-13.87,0-25.1,2.33-25.1,5.21v20.37h50.2V295.36C146.47,292.48,135.23,290.15,121.37,290.15Z" transform="translate(-52.74 -257.38)"/><ellipse class="cls-3" cx="68.63" cy="58.35" rx="25.1" ry="5.21"/><path class="cls-4" d="M147.31,297.55a2.16,2.16,0,0,1-1.41-.52c-.16-.13-6.09-4.7-24.66-4.7-18.3,0-24.66,4.7-24.72,4.75a2.18,2.18,0,0,1-2.71-3.42c.29-.23,7.32-5.69,27.43-5.69,20.37,0,26.84,5.16,27.51,5.75a2.18,2.18,0,0,1-1.44,3.83Z" transform="translate(-52.74 -257.38)"/><path class="cls-5" d="M129,292.63a57.44,57.44,0,0,1,10.8,1.81,2.18,2.18,0,0,0,2.79-2.1v0a2.19,2.19,0,0,0-1.61-2.11,60.4,60.4,0,0,0-11.63-1.93,2.18,2.18,0,0,0-2.36,2.18h0A2.19,2.19,0,0,0,129,292.63Z" transform="translate(-52.74 -257.38)"/><path class="cls-4" d="M147.31,316a2.16,2.16,0,0,1-1.41-.52c-.16-.13-6.09-4.7-24.66-4.7-18.3,0-24.66,4.71-24.72,4.75a2.18,2.18,0,0,1-2.71-3.42c.29-.23,7.32-5.69,27.43-5.69,20.37,0,26.84,5.17,27.51,5.75a2.18,2.18,0,0,1-1.44,3.83Z" transform="translate(-52.74 -257.38)"/><path class="cls-5" d="M129,311.13a56.76,56.76,0,0,1,10.8,1.8,2.18,2.18,0,0,0,2.79-2.1v0A2.19,2.19,0,0,0,141,308.7a61.19,61.19,0,0,0-11.63-1.93A2.19,2.19,0,0,0,127,309h0A2.2,2.2,0,0,0,129,311.13Z" transform="translate(-52.74 -257.38)"/><path class="cls-4" d="M117.49,300.09a3.76,3.76,0,1,1,3.76,3.76A3.76,3.76,0,0,1,117.49,300.09Z" transform="translate(-52.74 -257.38)"/><path class="cls-4" d="M92.5,303.85a3.77,3.77,0,1,1,3.77,3.77A3.77,3.77,0,0,1,92.5,303.85Z" transform="translate(-52.74 -257.38)"/><path class="cls-4" d="M142.7,303.85a3.77,3.77,0,1,1,3.77,3.77A3.77,3.77,0,0,1,142.7,303.85Z" transform="translate(-52.74 -257.38)"/><polygon class="cls-1" points="105.18 210.89 136.7 210.89 133.06 197.91 136.7 184.94 105.18 184.94 105.18 210.89"/><polygon class="cls-3" points="105.18 203.22 122.39 203.22 105.18 210.89 105.18 203.22"/><polygon class="cls-2" points="126.76 166.68 126.76 99.41 68.51 65.78 10.26 99.41 10.26 166.68 68.51 200.31 126.76 166.68"/><path class="cls-2" d="M121.25,466.09,55.72,428.26V352.59l65.53-37.83,65.53,37.83v75.67Zm-51-46.23,51,29.43,51-29.43V361l-51-29.44L70.27,361Z" transform="translate(-52.74 -257.38)"/><polygon class="cls-1" points="68.51 57.38 68.51 74.18 17.53 103.61 2.98 95.21 68.51 57.38"/><polygon class="cls-1" points="134.04 170.88 119.48 162.47 68.51 191.91 68.51 208.71 134.04 170.88"/><circle class="cls-1" cx="122.94" cy="390.43" r="36.11" transform="translate(-195.69 -178.16) rotate(-23.03)"/><path class="cls-3" d="M122.94,354.32c-1.18,0-2.35.06-3.5.17a36.1,36.1,0,0,1,0,71.87c1.15.11,2.32.17,3.5.17a36.11,36.11,0,1,0,0-72.21Z" transform="translate(-52.74 -257.38)"/><polygon class="cls-4" points="2.98 170.88 17.53 162.47 68.51 191.91 68.51 208.71 2.98 170.88"/><polygon class="cls-4" points="68.51 57.38 68.51 74.18 119.48 103.61 134.04 95.21 68.51 57.38"/><path class="cls-5" d="M121.25,450.44l-.5-.28L69.27,420.43v-60l52-30,.5.29,51.48,29.72v60Zm-50-31.16,50,28.85,50-28.85V361.57l-50-28.85-50,28.85Z" transform="translate(-52.74 -257.38)"/><polygon class="cls-1" points="31.53 210.89 0 210.89 3.64 197.91 0 184.94 31.53 184.94 31.53 210.89"/><rect class="cls-1" x="14.31" y="177.27" width="108.4" height="25.95"/><polygon class="cls-3" points="31.53 203.22 14.31 203.22 31.53 210.89 31.53 203.22"/><polygon class="cls-2" points="41.58 18.44 54.93 28.05 57.92 22.42 41.58 18.44"/><polygon class="cls-1" points="83.47 28.05 79.33 22.42 95.68 18.44 83.47 28.05"/><path class="cls-2" d="M65.54,316.72l-1.51.59,1.51.6A17.93,17.93,0,0,1,75.66,328l.6,1.51.59-1.51A17.94,17.94,0,0,1,87,317.91l1.5-.6-1.5-.59a18,18,0,0,1-10.13-10.13l-.59-1.51-.6,1.51A18,18,0,0,1,65.54,316.72Z" transform="translate(-52.74 -257.38)"/><path class="cls-2" d="M155.53,316.72l-1.51.59,1.51.6A18,18,0,0,1,165.66,328l.59,1.51.6-1.51A17.93,17.93,0,0,1,177,317.91l1.51-.6-1.51-.59a18,18,0,0,1-10.12-10.13l-.6-1.51-.59,1.51A18,18,0,0,1,155.53,316.72Z" transform="translate(-52.74 -257.38)"/><path class="cls-5" d="M77.61,453.11V440.4h2.84v10.19h5.42v2.52Z" transform="translate(-52.74 -257.38)"/><path class="cls-5" d="M97.11,440.4v2.53H90.78v2.62h5.69V448H90.78v2.63h6.53v2.51H87.94V440.4Z" transform="translate(-52.74 -257.38)"/><path class="cls-5" d="M104.53,448.5l3.24-8.1h3.07l-5.11,12.71h-2.4L98.22,440.4h3.07Z" transform="translate(-52.74 -257.38)"/><path class="cls-5" d="M121.52,440.4v2.53h-6.33v2.62h5.69V448h-5.69v2.63h6.53v2.51h-9.37V440.4Z" transform="translate(-52.74 -257.38)"/><path class="cls-5" d="M124.24,453.11V440.4h2.84v10.19h5.42v2.52Z" transform="translate(-52.74 -257.38)"/><path class="cls-5" d="M142.74,449.83a2.5,2.5,0,0,0,3.81,0,3.76,3.76,0,0,0,.7-2.41v-7h2.84v7.11a5.64,5.64,0,0,1-1.53,4.25,5.9,5.9,0,0,1-7.83,0,5.65,5.65,0,0,1-1.54-4.24V440.4H142v7A3.76,3.76,0,0,0,142.74,449.83Z" transform="translate(-52.74 -257.38)"/><path class="cls-5" d="M161.79,441.54a4.34,4.34,0,0,1,1.34,3.49,4.16,4.16,0,0,1-1.37,3.45,6.76,6.76,0,0,1-4.2,1.09h-1.69v3.54H153V440.4h4.5A6.5,6.5,0,0,1,161.79,441.54Zm-2.08,5a2.44,2.44,0,0,0,.51-1.67,1.78,1.78,0,0,0-.66-1.57,3.69,3.69,0,0,0-2.07-.46h-1.62v4.27h1.91A2.54,2.54,0,0,0,159.71,446.54Z" transform="translate(-52.74 -257.38)"/><path class="cls-5" d="M108.14,378.82v-8h25.68v6.48l-8.58,9.78a12.22,12.22,0,0,1,7.8,4.23,12,12,0,0,1,2.76,7.83q0,6.6-4.47,10.35a17.18,17.18,0,0,1-11.43,3.75q-7,0-14.1-4.92l3.84-7.44q5.94,4.2,10.62,4.2a7.51,7.51,0,0,0,4.65-1.38,4.69,4.69,0,0,0,1.83-4,4.86,4.86,0,0,0-2.1-4.14,9.72,9.72,0,0,0-5.82-1.53,20,20,0,0,0-5.58,1.14v-6.9l8-9.48Z" transform="translate(-52.74 -257.38)"/></svg>