<svg id="TEXT" xmlns="http://www.w3.org/2000/svg" viewBox="0 0 136.7 196.24"><defs><style>.cls-1{fill:#8cd41f;}.cls-2{fill:#433959;}.cls-3{fill:#00a979;}.cls-4{fill:#f8ffe1;}.cls-5{fill:#514769;}.cls-6{fill:#aaf4db;}</style></defs><polygon class="cls-1" points="94.01 7 85.85 5 85.85 11.17 79.81 9.17 79.81 2 71.65 0 71.65 8.17 65.61 8.17 65.61 0 57.44 2 57.44 9.17 51.4 11.17 51.4 5 43.24 7 43.53 43.71 93.73 43.71 94.01 7"/><ellipse class="cls-2" cx="68.63" cy="43.71" rx="25.1" ry="5.21"/><path class="cls-3" d="M147,55.33a2.19,2.19,0,0,1-1.42-.52c-.15-.13-6.08-4.7-24.65-4.7-18.3,0-24.66,4.71-24.72,4.75a2.19,2.19,0,0,1-2.72-3.42c.29-.23,7.32-5.69,27.44-5.69,20.36,0,26.84,5.17,27.51,5.76A2.18,2.18,0,0,1,147,55.33Z" transform="translate(-52.47 -29.81)"/><path class="cls-4" d="M128.75,50.42a57.05,57.05,0,0,1,10.8,1.8,2.17,2.17,0,0,0,2.78-2.1v0A2.19,2.19,0,0,0,140.72,48a61.21,61.21,0,0,0-11.62-1.93,2.19,2.19,0,0,0-2.36,2.18h0A2.2,2.2,0,0,0,128.75,50.42Z" transform="translate(-52.47 -29.81)"/><path class="cls-3" d="M147,73.82a2.19,2.19,0,0,1-1.42-.52c-.15-.12-6.08-4.69-24.65-4.69-18.3,0-24.66,4.7-24.72,4.74a2.18,2.18,0,0,1-2.72-3.41c.29-.24,7.32-5.7,27.44-5.7,20.36,0,26.84,5.17,27.51,5.76A2.18,2.18,0,0,1,147,73.82Z" transform="translate(-52.47 -29.81)"/><path class="cls-4" d="M128.75,68.91a56.92,56.92,0,0,1,10.8,1.81,2.18,2.18,0,0,0,2.78-2.1v0a2.2,2.2,0,0,0-1.61-2.11,61.21,61.21,0,0,0-11.62-1.93,2.19,2.19,0,0,0-2.36,2.18h0A2.2,2.2,0,0,0,128.75,68.91Z" transform="translate(-52.47 -29.81)"/><polygon class="cls-3" points="105.18 196.24 136.7 196.24 133.07 183.27 136.7 170.3 105.18 170.3 105.18 196.24"/><polygon class="cls-2" points="105.18 188.57 122.39 188.57 105.18 196.24 105.18 188.57"/><polygon class="cls-1" points="126.76 152.03 126.76 84.77 68.51 51.14 10.26 84.77 10.26 152.03 68.51 185.66 126.76 152.03"/><path class="cls-1" d="M121,223.87,55.45,186V110.38L121,72.54l65.53,37.84V186ZM70,177.64l51,29.43,51-29.43V118.78L121,89.35,70,118.78Z" transform="translate(-52.47 -29.81)"/><polygon class="cls-3" points="68.51 42.74 68.51 59.54 17.53 88.97 2.98 80.57 68.51 42.74"/><polygon class="cls-3" points="134.04 156.23 119.48 147.83 68.51 177.26 68.51 194.06 134.04 156.23"/><circle class="cls-3" cx="122.67" cy="148.21" r="36.1" transform="translate(-121.34 100.34) rotate(-45)"/><path class="cls-5" d="M122.67,112.1a33.75,33.75,0,0,0-3.5.18,36.1,36.1,0,0,1,0,71.86c1.15.11,2.32.17,3.5.17a36.11,36.11,0,0,0,0-72.21Z" transform="translate(-52.47 -29.81)"/><polygon class="cls-6" points="2.98 156.23 17.53 147.83 68.51 177.26 68.51 194.06 2.98 156.23"/><polygon class="cls-6" points="68.51 42.74 68.51 59.54 119.48 88.97 134.04 80.57 68.51 42.74"/><path class="cls-4" d="M121,208.23l-52-30v-60l52-30,52,30v60ZM71,177.06l50,28.86,50-28.86V119.35L121,90.5,71,119.35Z" transform="translate(-52.47 -29.81)"/><polygon class="cls-3" points="31.53 196.24 0 196.24 3.64 183.27 0 170.3 31.53 170.3 31.53 196.24"/><rect class="cls-3" x="14.31" y="162.62" width="108.4" height="25.95"/><polygon class="cls-2" points="31.53 188.57 14.31 188.57 31.53 196.24 31.53 188.57"/><path class="cls-4" d="M77.34,210.9V198.18h2.83v10.19h5.42v2.53Z" transform="translate(-52.47 -29.81)"/><path class="cls-4" d="M96.83,198.18v2.53H90.5v2.62h5.7v2.42H90.5v2.64H97v2.51H87.67V198.18Z" transform="translate(-52.47 -29.81)"/><path class="cls-4" d="M104.25,206.28l3.24-8.1h3.07l-5.11,12.72h-2.4l-5.11-12.72H101Z" transform="translate(-52.47 -29.81)"/><path class="cls-4" d="M121.24,198.18v2.53h-6.33v2.62h5.69v2.42h-5.69v2.64h6.53v2.51h-9.37V198.18Z" transform="translate(-52.47 -29.81)"/><path class="cls-4" d="M124,210.9V198.18h2.84v10.19h5.42v2.53Z" transform="translate(-52.47 -29.81)"/><path class="cls-4" d="M142.47,207.61a2.48,2.48,0,0,0,3.81,0,3.8,3.8,0,0,0,.7-2.41v-7h2.83v7.11a5.68,5.68,0,0,1-1.52,4.25,5.9,5.9,0,0,1-7.83,0,5.6,5.6,0,0,1-1.54-4.24v-7.11h2.84v7A3.68,3.68,0,0,0,142.47,207.61Z" transform="translate(-52.47 -29.81)"/><path class="cls-4" d="M161.52,199.32a4.33,4.33,0,0,1,1.33,3.49,4.13,4.13,0,0,1-1.37,3.45,6.64,6.64,0,0,1-4.19,1.09H155.6v3.55h-2.84V198.18h4.49A6.51,6.51,0,0,1,161.52,199.32Zm-2.08,5a2.49,2.49,0,0,0,.5-1.67,1.78,1.78,0,0,0-.66-1.57,3.63,3.63,0,0,0-2.06-.46H155.6v4.27h1.91A2.56,2.56,0,0,0,159.44,204.32Z" transform="translate(-52.47 -29.81)"/><path class="cls-4" d="M110.86,128.62h17v41.94h-9v-34h-8Z" transform="translate(-52.47 -29.81)"/></svg>