<svg version="1.1" xmlns="http://www.w3.org/2000/svg" xmlns:xlink="http://www.w3.org/1999/xlink" x="0px" y="0px" width="136.7px" height="153.51px" viewBox="0 0 136.7 153.51" style="enable-background:new 0 0 136.7 153.51;" xml:space="preserve"> <style type="text/css"> .st0{fill:#717171;} .st1{fill:#404040;} .st2{fill:#AAAAAA;} .st3{fill:#4E4E4E;} .st4{fill:#DBDBDB;} .st5{fill:none;stroke:#FAFAFA;stroke-width:2;stroke-miterlimit:10;} </style> <defs> </defs> <g> <polygon class="st0" points="105.18,153.51 136.7,153.51 133.07,140.53 136.7,127.56 105.18,127.56 	"/> <polygon class="st1" points="105.18,145.84 122.4,145.84 105.18,153.51 	"/> <polygon class="st2" points="126.76,109.3 126.76,42.03 68.51,8.4 10.26,42.03 10.26,109.3 68.51,142.93 	"/> <path class="st2" d="M68.51,151.33L2.98,113.5V37.83L68.51,0l65.53,37.83v75.66L68.51,151.33z M17.53,105.1l50.98,29.43 l50.98-29.43V46.23L68.51,16.8L17.53,46.23V105.1z"/> <polygon class="st0" points="68.51,0 68.51,16.8 17.53,46.23 2.98,37.83 	"/> <polygon class="st0" points="134.04,113.5 119.49,105.1 68.51,134.53 68.51,151.33 	"/> <ellipse transform="matrix(0.7071 -0.7071 0.7071 0.7071 -32.941 71.8015)" class="st0" cx="70.2" cy="75.66" rx="36.1" ry="36.1"/> <path class="st3" d="M70.2,39.56c-1.18,0-2.35,0.06-3.5,0.17c18.3,1.76,32.6,17.17,32.6,35.93c0,18.76-14.31,34.17-32.6,35.93 c1.15,0.11,2.32,0.17,3.5,0.17c19.94,0,36.1-16.16,36.1-36.1S90.14,39.56,70.2,39.56z"/> <polygon class="st4" points="2.98,113.5 17.53,105.1 68.51,134.53 68.51,151.33 	"/> <polygon class="st4" points="68.51,0 68.51,16.8 119.49,46.23 134.04,37.83 	"/> <path class="st5" d="M17.53,105.1l50.98,29.43l50.98-29.43V46.23L68.51,16.8L17.53,46.23V105.1z"/> <polygon class="st0" points="31.53,153.51 0,153.51 3.64,140.53 0,127.56 31.53,127.56 	"/> <rect x="14.31" y="119.89" class="st0" width="108.4" height="25.95"/> <polygon class="st1" points="31.53,145.84 14.31,145.84 31.53,153.51 	"/> </g> </svg>