<svg id="TEXT" xmlns="http://www.w3.org/2000/svg" viewBox="0 0 136.7 202.3"><defs><style>.cls-1{fill:#39759a;}.cls-2{fill:#433959;}.cls-3{fill:#4aacd1;}.cls-4{fill:#f8ffe1;}.cls-5{fill:#aaf4db;}</style></defs><polygon class="cls-1" points="88.27 15.75 84.58 4.5 75.56 10.5 68.63 0 61.69 10.5 52.67 4.5 48.98 15.75 39.12 12.75 45.29 34.13 68.63 34.13 91.96 34.13 98.13 12.75 88.27 15.75"/><path class="cls-1" d="M365.5,41.81c-13.86,0-25.1,2.33-25.1,5.21V67.39h50.2V47C390.6,44.14,379.36,41.81,365.5,41.81Z" transform="translate(-296.87 -17.63)"/><ellipse class="cls-2" cx="68.63" cy="49.77" rx="25.1" ry="5.21"/><path class="cls-3" d="M391.45,49.2a2.19,2.19,0,0,1-1.42-.52c-.15-.12-6.09-4.69-24.65-4.69-18.3,0-24.66,4.7-24.72,4.75a2.2,2.2,0,0,1-3.06-.38,2.17,2.17,0,0,1,.34-3c.29-.23,7.32-5.7,27.44-5.7,20.36,0,26.84,5.17,27.51,5.76a2.18,2.18,0,0,1-1.44,3.82Z" transform="translate(-296.87 -17.63)"/><path class="cls-4" d="M373.16,44.29A56.65,56.65,0,0,1,384,46.1a2.18,2.18,0,0,0,2.79-2.1v0a2.18,2.18,0,0,0-1.61-2.11,61.09,61.09,0,0,0-11.62-1.94,2.2,2.2,0,0,0-2.37,2.19h0A2.19,2.19,0,0,0,373.16,44.29Z" transform="translate(-296.87 -17.63)"/><path class="cls-3" d="M391.45,67.7a2.2,2.2,0,0,1-1.42-.53c-.15-.12-6.09-4.69-24.65-4.69-18.3,0-24.66,4.7-24.72,4.75a2.2,2.2,0,0,1-3.06-.38,2.17,2.17,0,0,1,.34-3c.29-.23,7.32-5.69,27.44-5.69,20.36,0,26.84,5.16,27.51,5.75a2.19,2.19,0,0,1-1.44,3.83Z" transform="translate(-296.87 -17.63)"/><path class="cls-4" d="M373.16,62.78A56.65,56.65,0,0,1,384,64.59a2.18,2.18,0,0,0,2.79-2.1v0a2.18,2.18,0,0,0-1.61-2.11,61.09,61.09,0,0,0-11.62-1.94,2.2,2.2,0,0,0-2.37,2.19h0A2.19,2.19,0,0,0,373.16,62.78Z" transform="translate(-296.87 -17.63)"/><path class="cls-3" d="M361.62,51.75a3.76,3.76,0,1,1,3.76,3.76A3.76,3.76,0,0,1,361.62,51.75Z" transform="translate(-296.87 -17.63)"/><path class="cls-3" d="M336.64,55.51a3.76,3.76,0,1,1,3.76,3.76A3.76,3.76,0,0,1,336.64,55.51Z" transform="translate(-296.87 -17.63)"/><path class="cls-3" d="M386.84,55.51a3.76,3.76,0,1,1,3.76,3.76A3.76,3.76,0,0,1,386.84,55.51Z" transform="translate(-296.87 -17.63)"/><polygon class="cls-3" points="105.18 202.3 136.7 202.3 133.06 189.33 136.7 176.35 105.18 176.35 105.18 202.3"/><polygon class="cls-2" points="105.18 194.63 122.39 194.63 105.18 202.3 105.18 194.63"/><polygon class="cls-3" points="126.76 158.09 126.76 90.83 68.51 57.2 10.26 90.83 10.26 158.09 68.51 191.72 126.76 158.09"/><path class="cls-3" d="M365.38,217.75l-65.53-37.83V104.25l65.53-37.83,65.53,37.83v75.67Zm-51-46.23,51,29.43,51-29.43V112.65l-51-29.43-51,29.43Z" transform="translate(-296.87 -17.63)"/><polygon class="cls-1" points="68.51 48.79 68.51 65.6 17.53 95.03 2.98 86.63 68.51 48.79"/><polygon class="cls-1" points="134.04 162.29 119.48 153.89 68.51 183.32 68.51 200.12 134.04 162.29"/><circle class="cls-1" cx="367.07" cy="142.08" r="36.1" transform="translate(-129.47 463.67) rotate(-80.68)"/><path class="cls-2" d="M367.07,106c-1.18,0-2.34.06-3.5.17a36.1,36.1,0,0,1,0,71.87c1.16.11,2.32.17,3.5.17a36.11,36.11,0,1,0,0-72.21Z" transform="translate(-296.87 -17.63)"/><polygon class="cls-5" points="2.98 162.29 17.53 153.89 68.51 183.32 68.51 200.12 2.98 162.29"/><polygon class="cls-5" points="68.51 48.79 68.51 65.6 119.48 95.03 134.04 86.63 68.51 48.79"/><path class="cls-4" d="M365.38,202.1l-52-30v-60l52-30,52,30v60Zm-50-31.16,50,28.85,50-28.85V113.23l-50-28.85-50,28.85Z" transform="translate(-296.87 -17.63)"/><polygon class="cls-3" points="31.53 202.3 0 202.3 3.64 189.33 0 176.35 31.53 176.35 31.53 202.3"/><rect class="cls-3" x="14.31" y="168.68" width="108.4" height="25.95"/><polygon class="cls-2" points="31.53 194.63 14.31 194.63 31.53 202.3 31.53 194.63"/><path class="cls-4" d="M321.74,204.77V192.06h2.84v10.18H330v2.53Z" transform="translate(-296.87 -17.63)"/><path class="cls-4" d="M341.24,192.06v2.53h-6.33v2.62h5.69v2.41h-5.69v2.64h6.53v2.51h-9.37V192.06Z" transform="translate(-296.87 -17.63)"/><path class="cls-4" d="M348.66,200.15l3.24-8.09H355l-5.11,12.71h-2.4l-5.11-12.71h3.07Z" transform="translate(-296.87 -17.63)"/><path class="cls-4" d="M365.65,192.06v2.53h-6.33v2.62H365v2.41h-5.69v2.64h6.53v2.51h-9.37V192.06Z" transform="translate(-296.87 -17.63)"/><path class="cls-4" d="M368.38,204.77V192.06h2.83v10.18h5.42v2.53Z" transform="translate(-296.87 -17.63)"/><path class="cls-4" d="M386.87,201.49a2.33,2.33,0,0,0,1.91.88,2.28,2.28,0,0,0,1.9-.88,3.76,3.76,0,0,0,.7-2.41v-7h2.84v7.11a5.66,5.66,0,0,1-1.53,4.25,5.36,5.36,0,0,1-3.91,1.48,5.44,5.44,0,0,1-3.92-1.49,5.66,5.66,0,0,1-1.53-4.24v-7.11h2.84v7A3.76,3.76,0,0,0,386.87,201.49Z" transform="translate(-296.87 -17.63)"/><path class="cls-4" d="M405.93,193.2a4.32,4.32,0,0,1,1.33,3.49,4.13,4.13,0,0,1-1.37,3.44,6.66,6.66,0,0,1-4.19,1.1H400v3.54h-2.84V192.06h4.49A6.53,6.53,0,0,1,405.93,193.2Zm-2.09,5a2.46,2.46,0,0,0,.51-1.68,1.77,1.77,0,0,0-.66-1.56,3.65,3.65,0,0,0-2.07-.46H400v4.27h1.91A2.53,2.53,0,0,0,403.84,198.2Z" transform="translate(-296.87 -17.63)"/><path class="cls-4" d="M368.44,138.85A7.58,7.58,0,0,0,370,134.5a4.82,4.82,0,0,0-1.38-3.51,4.74,4.74,0,0,0-3.54-1.41q-4,0-7.5,5.64l-7.5-4.44a23.23,23.23,0,0,1,6.45-6.9,15.8,15.8,0,0,1,8.94-2.34A14.39,14.39,0,0,1,375,125a11.61,11.61,0,0,1,4.11,9.39,12.61,12.61,0,0,1-1.65,6.21,40.55,40.55,0,0,1-6.09,7.59L363.85,156h16.56v8.4H350.83v-7l12.3-12.6A53.64,53.64,0,0,0,368.44,138.85Z" transform="translate(-296.87 -17.63)"/></svg>