<svg id="TEXT" xmlns="http://www.w3.org/2000/svg" viewBox="0 0 194.05 210.89"><defs><style>.cls-1{fill:#ff7b34;}.cls-2{fill:#ff9700;}.cls-3{fill:#f5c05b;}.cls-4{fill:#433959;}.cls-5{fill:#f4af3e;}.cls-6{fill:#f8ffe1;}</style></defs><path class="cls-1" d="M281,380.33H265a17.51,17.51,0,0,1-17.5-17.5H281Z" transform="translate(-247.47 -259.93)"/><path class="cls-2" d="M281,397.83H269a17.51,17.51,0,0,1-17.5-17.5H281Z" transform="translate(-247.47 -259.93)"/><path class="cls-3" d="M281,415.33h-6a17.51,17.51,0,0,1-17.5-17.5H281Z" transform="translate(-247.47 -259.93)"/><polygon class="cls-4" points="31.5 155.4 33.5 155.4 33.5 102.9 25.5 102.9 31.5 155.4"/><path class="cls-1" d="M408,380.33h16a17.51,17.51,0,0,0,17.5-17.5H408Z" transform="translate(-247.47 -259.93)"/><path class="cls-2" d="M408,397.83h12a17.51,17.51,0,0,0,17.5-17.5H408Z" transform="translate(-247.47 -259.93)"/><path class="cls-3" d="M408,415.33h6a17.51,17.51,0,0,0,17.5-17.5H408Z" transform="translate(-247.47 -259.93)"/><polygon class="cls-4" points="162.55 155.4 160.55 155.4 160.55 102.9 168.55 102.9 162.55 155.4"/><path class="cls-1" d="M378.9,276.87c0-6.82-6.42-12.35-14.34-12.35a16.08,16.08,0,0,0-6.71,1.45,17.52,17.52,0,0,0-26.47,0,16.08,16.08,0,0,0-6.71-1.45c-7.92,0-14.34,5.53-14.34,12.35,0,11.06,12.16,14.22,12.16,24.56h44.25C366.74,290.37,378.9,287.36,378.9,276.87Z" transform="translate(-247.47 -259.93)"/><path class="cls-2" d="M357.7,265.8a17.52,17.52,0,0,0-26.17,0c-6.5,15.67,6.93,35.63,6.93,35.63h12.31S364.2,278.88,357.7,265.8Z" transform="translate(-247.47 -259.93)"/><path class="cls-1" d="M344.61,292.7c-13.86,0-25.09,2.33-25.09,5.21v20.37h50.19V297.91C369.71,295,358.48,292.7,344.61,292.7Z" transform="translate(-247.47 -259.93)"/><path class="cls-4" d="M369.71,318.28c0,2.88-11.23,5.22-25.1,5.22s-25.09-2.34-25.09-5.22,11.23-5.21,25.09-5.21S369.71,315.4,369.71,318.28Z" transform="translate(-247.47 -259.93)"/><path class="cls-5" d="M370.56,300.09a2.16,2.16,0,0,1-1.41-.52c-.16-.12-6.09-4.69-24.66-4.69-18.3,0-24.66,4.7-24.72,4.75a2.18,2.18,0,0,1-2.71-3.42c.29-.23,7.31-5.69,27.43-5.69,20.37,0,26.84,5.16,27.51,5.75a2.18,2.18,0,0,1-1.44,3.82Z" transform="translate(-247.47 -259.93)"/><path class="cls-6" d="M352.27,295.18a56.78,56.78,0,0,1,10.8,1.81,2.18,2.18,0,0,0,2.79-2.1v0a2.19,2.19,0,0,0-1.62-2.11,61,61,0,0,0-11.62-1.94,2.19,2.19,0,0,0-2.36,2.19h0A2.19,2.19,0,0,0,352.27,295.18Z" transform="translate(-247.47 -259.93)"/><path class="cls-5" d="M370.56,318.59a2.17,2.17,0,0,1-1.41-.53c-.16-.12-6.09-4.69-24.66-4.69-18.3,0-24.66,4.7-24.72,4.75a2.18,2.18,0,0,1-2.71-3.42c.29-.23,7.31-5.69,27.43-5.69,20.37,0,26.84,5.16,27.51,5.75a2.19,2.19,0,0,1-1.44,3.83Z" transform="translate(-247.47 -259.93)"/><path class="cls-6" d="M352.27,313.67a56.78,56.78,0,0,1,10.8,1.81,2.18,2.18,0,0,0,2.79-2.1v0a2.2,2.2,0,0,0-1.62-2.11,60.28,60.28,0,0,0-11.62-1.93,2.18,2.18,0,0,0-2.36,2.18h0A2.19,2.19,0,0,0,352.27,313.67Z" transform="translate(-247.47 -259.93)"/><path class="cls-3" d="M340.73,302.64a3.77,3.77,0,1,1,3.77,3.76A3.76,3.76,0,0,1,340.73,302.64Z" transform="translate(-247.47 -259.93)"/><path class="cls-3" d="M315.75,306.4a3.77,3.77,0,1,1,3.77,3.76A3.76,3.76,0,0,1,315.75,306.4Z" transform="translate(-247.47 -259.93)"/><path class="cls-3" d="M366,306.4a3.77,3.77,0,1,1,3.76,3.76A3.76,3.76,0,0,1,366,306.4Z" transform="translate(-247.47 -259.93)"/><polygon class="cls-1" points="133.7 210.89 165.22 210.89 161.58 197.91 165.22 184.94 133.7 184.94 133.7 210.89"/><polygon class="cls-4" points="133.7 203.22 150.91 203.22 133.7 210.89 133.7 203.22"/><polygon class="cls-5" points="155.28 166.68 155.28 99.41 97.03 65.78 38.77 99.41 38.77 166.68 97.03 200.31 155.28 166.68"/><path class="cls-2" d="M344.5,468.64,279,430.81V355.14l65.53-37.83L410,355.14v75.67Zm-51-46.23,51,29.43,51-29.43V363.54l-51-29.43-51,29.43Z" transform="translate(-247.47 -259.93)"/><polygon class="cls-1" points="97.03 57.38 97.03 74.18 46.05 103.61 31.5 95.21 97.03 57.38"/><polygon class="cls-1" points="162.55 170.88 148 162.47 97.03 191.91 97.03 208.71 162.55 170.88"/><circle class="cls-2" cx="98.72" cy="133.04" r="36.1"/><path class="cls-1" d="M346.19,356.87c-1.18,0-2.35.06-3.5.17a36.1,36.1,0,0,1,0,71.87c1.15.11,2.32.17,3.5.17a36.11,36.11,0,1,0,0-72.21Z" transform="translate(-247.47 -259.93)"/><polygon class="cls-3" points="31.5 170.88 46.05 162.47 97.03 191.91 97.03 208.71 31.5 170.88"/><polygon class="cls-3" points="97.03 57.38 97.03 74.18 148 103.61 162.55 95.21 97.03 57.38"/><path class="cls-6" d="M344.5,453l-.5-.29L292.52,423V363l52-30,.5.29L396.47,363v60Zm-50-31.16,50,28.85,50-28.85V364.12l-50-28.85-50,28.85Z" transform="translate(-247.47 -259.93)"/><polygon class="cls-1" points="60.05 210.89 28.52 210.89 32.16 197.91 28.52 184.94 60.05 184.94 60.05 210.89"/><rect class="cls-1" x="42.83" y="177.27" width="108.4" height="25.95"/><polygon class="cls-4" points="60.05 203.22 42.83 203.22 60.05 210.89 60.05 203.22"/><polygon class="cls-2" points="44.52 45.87 52.23 50.66 61.27 51.38 59.1 60.19 61.2 69.02 52.16 69.67 44.41 74.4 40.99 66 34.1 60.1 41.04 54.25 44.52 45.87"/><polygon class="cls-2" points="149.53 45.87 141.82 50.66 132.78 51.38 134.95 60.19 132.85 69.02 141.9 69.67 149.64 74.4 153.06 66 159.95 60.1 153.02 54.25 149.53 45.87"/><path class="cls-6" d="M300.86,455.66V443h2.84v10.18h5.42v2.53Z" transform="translate(-247.47 -259.93)"/><path class="cls-6" d="M320.36,443v2.53H314v2.62h5.69v2.42H314v2.63h6.53v2.51h-9.37V443Z" transform="translate(-247.47 -259.93)"/><path class="cls-6" d="M327.78,451,331,443h3.08L329,455.66h-2.4L321.47,443h3.07Z" transform="translate(-247.47 -259.93)"/><path class="cls-6" d="M344.76,443v2.53h-6.33v2.62h5.7v2.42h-5.7v2.63H345v2.51H335.6V443Z" transform="translate(-247.47 -259.93)"/><path class="cls-6" d="M347.49,455.66V443h2.84v10.18h5.42v2.53Z" transform="translate(-247.47 -259.93)"/><path class="cls-6" d="M366,452.38a2.5,2.5,0,0,0,3.81,0,3.76,3.76,0,0,0,.7-2.41v-7h2.84v7.11a5.66,5.66,0,0,1-1.53,4.25,5.9,5.9,0,0,1-7.83,0,5.67,5.67,0,0,1-1.54-4.24V443h2.84v7A3.76,3.76,0,0,0,366,452.38Z" transform="translate(-247.47 -259.93)"/><path class="cls-6" d="M385,444.09a4.32,4.32,0,0,1,1.34,3.49A4.1,4.1,0,0,1,385,451a6.64,6.64,0,0,1-4.19,1.1h-1.69v3.54h-2.84V443h4.5A6.5,6.5,0,0,1,385,444.09Zm-2.08,5a2.45,2.45,0,0,0,.51-1.68,1.76,1.76,0,0,0-.67-1.56,3.63,3.63,0,0,0-2.06-.46h-1.62v4.27H381A2.54,2.54,0,0,0,383,449.09Z" transform="translate(-247.47 -259.93)"/><path class="cls-6" d="M346,397.21v-7.32h9v7.32h4.73v8.1H355v10h-9v-10H329.13v-7.14l14.95-24.78h10.19l-14.22,23.82Z" transform="translate(-247.47 -259.93)"/></svg>